<svg xmlns="http://www.w3.org/2000/svg" xmlns:xlink="http://www.w3.org/1999/xlink" width="500" zoomAndPan="magnify" viewBox="0 0 375 374.999991" height="500" preserveAspectRatio="xMidYMid meet" version="1.0"><defs><g/><clipPath id="f96a303e5e"><path d="M 167.683594 229.226562 L 207.433594 229.226562 L 207.433594 285.476562 L 167.683594 285.476562 Z M 167.683594 229.226562 " clip-rule="nonzero"/></clipPath></defs><g fill="#f4d8d6" fill-opacity="1"><g transform="translate(9.281254, 199.599992)"><g><path d="M 10.804688 0.359375 C 15.246094 0.359375 19.617188 -3.683594 19.617188 -7.839844 C 19.617188 -11.054688 16.367188 -15.390625 12.285156 -16.871094 C 8.742188 -18.171875 5.925781 -21.0625 5.925781 -23.015625 C 5.925781 -25.871094 7.914062 -28.6875 9.972656 -28.6875 C 11.199219 -28.6875 12.683594 -28.074219 13.984375 -27.171875 C 14.378906 -26.773438 16.003906 -24.964844 17.558594 -23.195312 L 17.8125 -22.90625 L 18.28125 -22.90625 L 18.28125 -26.84375 L 18.101562 -26.84375 L 18.066406 -26.449219 C 18.027344 -26.050781 17.304688 -26.160156 16.546875 -26.664062 C 14.777344 -28.039062 12.140625 -29.085938 9.972656 -29.085938 C 5.996094 -29.085938 2.132812 -25.183594 2.132812 -21.171875 C 2.132812 -17.777344 5.347656 -13.296875 9.359375 -11.851562 C 12.898438 -10.550781 15.714844 -8.019531 15.714844 -6.46875 C 15.714844 -3.289062 13.296875 -0.144531 10.804688 -0.144531 C 9.429688 -0.144531 7.585938 -1.15625 5.996094 -2.601562 C 6.9375 -1.769531 5.203125 -3.972656 2.457031 -7.117188 L 2.203125 -7.40625 L 1.699219 -7.335938 L 1.699219 -2.058594 L 1.878906 -2.058594 L 1.914062 -2.78125 C 1.949219 -3.578125 2.960938 -3.503906 3.972656 -2.710938 C 5.960938 -0.9375 8.671875 0.359375 10.804688 0.359375 Z M 10.804688 0.359375 "/></g></g></g><g fill="#f4d8d6" fill-opacity="1"><g transform="translate(30.308329, 199.599992)"><g><path d="M 11.707031 0.359375 C 16.800781 0.359375 21.785156 -4.695312 21.785156 -9.828125 C 21.785156 -14.957031 16.800781 -20.015625 11.707031 -20.015625 C 6.613281 -20.015625 1.625 -14.957031 1.625 -9.828125 C 1.625 -4.695312 6.613281 0.359375 11.707031 0.359375 Z M 11.707031 -0.0351562 C 8.925781 -0.0351562 6.214844 -4.878906 6.214844 -9.828125 C 6.214844 -14.777344 8.925781 -19.617188 11.707031 -19.617188 C 14.488281 -19.617188 17.199219 -14.777344 17.199219 -9.828125 C 17.199219 -4.878906 14.488281 -0.0351562 11.707031 -0.0351562 Z M 11.707031 -0.0351562 "/></g></g></g><g fill="#f4d8d6" fill-opacity="1"><g transform="translate(53.719918, 199.599992)"><g><path d="M 10.695312 -19.835938 C 9.175781 -19.835938 6.613281 -18.644531 5.058594 -17.269531 L 5.058594 -28.6875 L 3 -28.6875 L 3 -28.722656 L 0.359375 -28 L 0.359375 -27.820312 C 0.722656 -27.820312 0.902344 -27.027344 0.902344 -26.121094 L 0.902344 0 L 1.121094 0 L 2.601562 -2.3125 C 4.40625 -0.792969 7.296875 0.359375 9.898438 0.359375 C 14.957031 0.359375 19.90625 -4.734375 19.90625 -9.9375 C 19.90625 -14.921875 15.355469 -19.835938 10.695312 -19.835938 Z M 10.042969 -0.253906 C 8.238281 -0.253906 5.925781 -2.058594 5.058594 -4.046875 L 5.058594 -16.511719 C 6.285156 -17.558594 8.238281 -18.5 9.359375 -18.5 C 12.320312 -18.5 15.246094 -14.019531 15.246094 -9.464844 C 15.246094 -4.804688 12.683594 -0.253906 10.042969 -0.253906 Z M 10.042969 -0.253906 "/></g></g></g><g fill="#f4d8d6" fill-opacity="1"><g transform="translate(75.252799, 199.599992)"><g><path d="M 0.976562 0 L 5.128906 0 L 5.128906 -14.886719 C 6.140625 -16.546875 7.984375 -18.066406 9.140625 -18.066406 C 10.082031 -18.066406 11.019531 -17.449219 11.019531 -16.800781 C 11.019531 -15.570312 12.25 -14.34375 13.476562 -14.34375 C 14.703125 -14.34375 15.898438 -15.570312 15.898438 -16.800781 C 15.898438 -18.425781 13.511719 -20.015625 11.054688 -20.015625 C 9.25 -20.015625 6.429688 -17.847656 5.09375 -15.535156 L 5.09375 -19.65625 L 3.035156 -19.65625 L 3.035156 -19.691406 C 2.382812 -19.546875 1.046875 -19.183594 0.398438 -19.003906 L 0.433594 -18.824219 L 0.542969 -18.824219 C 0.757812 -18.75 0.976562 -17.921875 0.976562 -17.089844 Z M 0.976562 0 "/></g></g></g><g fill="#f4d8d6" fill-opacity="1"><g transform="translate(91.510847, 199.599992)"><g><path d="M 19.800781 -4.480469 L 19.472656 -4.625 C 19.292969 -3.683594 18.210938 -2.78125 17.234375 -2.78125 C 16.292969 -2.78125 15.390625 -3.539062 15.390625 -4.335938 L 15.390625 -13.910156 C 15.390625 -17.449219 12.609375 -20.015625 9.792969 -20.015625 C 5.890625 -20.015625 2.058594 -16.222656 2.058594 -14.597656 C 2.058594 -13.152344 3.359375 -11.707031 4.660156 -11.707031 C 5.671875 -11.707031 6.683594 -13.042969 6.683594 -13.765625 C 6.683594 -14.34375 5.960938 -15.355469 5.960938 -16.003906 C 5.960938 -17.054688 7.730469 -19.511719 9.503906 -19.511719 C 10.40625 -19.511719 11.273438 -17.777344 11.273438 -15.390625 L 11.273438 -10.441406 C 4.515625 -9.214844 1.335938 -7.40625 1.335938 -3.683594 C 1.335938 -1.625 3.503906 0.359375 5.707031 0.359375 C 6.9375 0.359375 9.394531 -0.9375 11.488281 -3.035156 C 12.105469 -1.265625 13.839844 0.179688 15.570312 0.179688 C 17.304688 0.179688 19.4375 -2.132812 19.835938 -4.480469 Z M 7.949219 -1.804688 C 6.757812 -1.804688 5.5625 -2.925781 5.5625 -4.082031 C 5.5625 -7.769531 7.40625 -9.359375 11.273438 -10.117188 L 11.273438 -4.335938 C 11.273438 -3.972656 11.308594 -3.613281 11.417969 -3.25 C 10.371094 -2.382812 8.886719 -1.804688 7.949219 -1.804688 Z M 7.949219 -1.804688 "/></g></g></g><g fill="#f4d8d6" fill-opacity="1"><g transform="translate(110.948246, 199.599992)"><g><path d="M 0.9375 0 L 5.09375 0 L 5.09375 -14.921875 C 6.25 -16.402344 8.925781 -17.847656 10.515625 -17.847656 C 12.066406 -17.847656 13.296875 -15.425781 13.296875 -12.933594 L 13.296875 0 L 17.449219 0 L 17.449219 -12.933594 C 17.449219 -16.511719 14.992188 -20.015625 11.886719 -20.015625 C 10.1875 -20.015625 6.828125 -17.847656 5.09375 -15.644531 L 5.09375 -19.65625 L 3.035156 -19.65625 L 3.035156 -19.691406 C 2.382812 -19.546875 1.046875 -19.183594 0.398438 -19.003906 L 0.398438 -18.824219 L 0.503906 -18.824219 C 0.722656 -18.75 0.9375 -17.921875 0.9375 -17.089844 Z M 0.9375 0 "/></g></g></g><g fill="#f4d8d6" fill-opacity="1"><g transform="translate(129.988227, 199.599992)"><g><path d="M 12.03125 0.359375 C 14.777344 0.359375 18.460938 -2.238281 19.511719 -4.914062 L 19.328125 -4.984375 C 18.5 -2.855469 15.210938 -0.757812 12.683594 -0.757812 C 9.320312 -0.757812 6.035156 -5.707031 6.035156 -10.765625 C 6.035156 -15.28125 9.285156 -19.726562 12.609375 -19.726562 C 13.367188 -19.726562 14.703125 -17.992188 15.355469 -16.222656 C 15.714844 -15.175781 16.765625 -14.164062 17.449219 -14.164062 C 18.859375 -14.164062 19.871094 -15.175781 19.511719 -16.222656 C 18.824219 -18.136719 15.425781 -20.015625 12.683594 -20.015625 C 7.082031 -20.015625 1.625 -14.667969 1.625 -9.214844 C 1.625 -4.371094 6.792969 0.359375 12.03125 0.359375 Z M 12.03125 0.359375 "/></g></g></g><g fill="#f4d8d6" fill-opacity="1"><g transform="translate(150.581754, 199.599992)"><g><path d="M 10.839844 0.359375 C 14.234375 0.359375 18.425781 -2.382812 19.292969 -5.167969 L 19.113281 -5.203125 C 18.425781 -3 14.558594 -0.867188 11.273438 -0.867188 C 8.597656 -0.867188 5.996094 -5.746094 5.996094 -10.695312 C 5.996094 -11.632812 6.070312 -12.539062 6.214844 -13.367188 L 20.015625 -13.367188 C 19.617188 -17.414062 15.609375 -20.015625 11.742188 -20.015625 C 6.648438 -20.015625 1.625 -15.679688 1.625 -8.996094 C 1.625 -4.261719 6.179688 0.359375 10.839844 0.359375 Z M 6.25 -13.65625 C 7.046875 -17.414062 9.320312 -19.726562 11.632812 -19.726562 C 13.1875 -19.726562 14.921875 -17.378906 15.355469 -13.695312 Z M 6.25 -13.65625 "/></g></g></g><g fill="#f4d8d6" fill-opacity="1"><g transform="translate(171.681087, 199.599992)"><g><path d="M 0.9375 0 L 5.09375 0 L 5.09375 -28.6875 L 3.035156 -28.6875 L 3.035156 -28.722656 C 2.382812 -28.578125 1.046875 -28.21875 0.398438 -28.039062 L 0.398438 -27.855469 L 0.503906 -27.855469 C 0.722656 -27.785156 0.9375 -26.953125 0.9375 -26.121094 Z M 0.9375 0 "/></g></g></g><g fill="#f4d8d6" fill-opacity="1"><g transform="translate(178.364951, 199.599992)"><g><path d="M 0.9375 0 L 5.09375 0 L 5.09375 -15.355469 C 5.78125 -16.222656 8.5625 -17.089844 10.695312 -17.089844 C 12.644531 -17.089844 14.199219 -14.777344 14.199219 -12.429688 L 14.199219 0 L 18.355469 0 L 18.355469 -12.429688 C 18.355469 -16.257812 16.003906 -20.015625 13.042969 -20.015625 C 10.695312 -20.015625 6.757812 -17.921875 5.09375 -15.789062 L 5.09375 -28.6875 L 3.035156 -28.6875 L 3.035156 -28.722656 C 2.382812 -28.578125 1.046875 -28.21875 0.398438 -28.039062 L 0.398438 -27.855469 L 0.503906 -27.855469 C 0.722656 -27.785156 0.9375 -26.953125 0.9375 -26.121094 Z M 0.9375 0 "/></g></g></g><g fill="#f4d8d6" fill-opacity="1"><g transform="translate(198.308156, 199.599992)"><g><path d="M 19.800781 -4.480469 L 19.472656 -4.625 C 19.292969 -3.683594 18.210938 -2.78125 17.234375 -2.78125 C 16.292969 -2.78125 15.390625 -3.539062 15.390625 -4.335938 L 15.390625 -13.910156 C 15.390625 -17.449219 12.609375 -20.015625 9.792969 -20.015625 C 5.890625 -20.015625 2.058594 -16.222656 2.058594 -14.597656 C 2.058594 -13.152344 3.359375 -11.707031 4.660156 -11.707031 C 5.671875 -11.707031 6.683594 -13.042969 6.683594 -13.765625 C 6.683594 -14.34375 5.960938 -15.355469 5.960938 -16.003906 C 5.960938 -17.054688 7.730469 -19.511719 9.503906 -19.511719 C 10.40625 -19.511719 11.273438 -17.777344 11.273438 -15.390625 L 11.273438 -10.441406 C 4.515625 -9.214844 1.335938 -7.40625 1.335938 -3.683594 C 1.335938 -1.625 3.503906 0.359375 5.707031 0.359375 C 6.9375 0.359375 9.394531 -0.9375 11.488281 -3.035156 C 12.105469 -1.265625 13.839844 0.179688 15.570312 0.179688 C 17.304688 0.179688 19.4375 -2.132812 19.835938 -4.480469 Z M 7.949219 -1.804688 C 6.757812 -1.804688 5.5625 -2.925781 5.5625 -4.082031 C 5.5625 -7.769531 7.40625 -9.359375 11.273438 -10.117188 L 11.273438 -4.335938 C 11.273438 -3.972656 11.308594 -3.613281 11.417969 -3.25 C 10.371094 -2.382812 8.886719 -1.804688 7.949219 -1.804688 Z M 7.949219 -1.804688 "/></g></g></g><g fill="#f4d8d6" fill-opacity="1"><g transform="translate(217.745556, 199.599992)"><g><path d="M 14.777344 -5.382812 C 14.777344 -7.660156 12.210938 -10.585938 9.03125 -11.453125 C 6.71875 -12.066406 4.878906 -14.34375 4.878906 -16.148438 C 4.878906 -17.992188 6.46875 -19.761719 8.09375 -19.761719 C 8.597656 -19.761719 9.175781 -19.582031 9.753906 -19.292969 C 9.070312 -19.617188 10.949219 -17.847656 13.550781 -15.679688 C 13.621094 -15.644531 13.730469 -15.5 13.800781 -15.464844 L 13.945312 -15.464844 L 13.945312 -18.027344 L 13.839844 -18.027344 C 13.839844 -17.957031 13.800781 -17.882812 13.800781 -17.8125 C 13.800781 -17.8125 11.128906 -19.292969 10.621094 -19.511719 C 10.441406 -19.65625 10.261719 -19.761719 10.082031 -19.871094 L 10.007812 -19.761719 C 9.359375 -19.980469 8.707031 -20.089844 8.09375 -20.089844 C 4.984375 -20.089844 1.914062 -17.449219 1.914062 -14.742188 C 1.914062 -12.210938 4.261719 -9.105469 7.191406 -8.308594 C 9.609375 -7.660156 11.5625 -5.707031 11.5625 -4.261719 C 11.5625 -2.09375 9.753906 0.214844 7.839844 -0.0351562 C 7.226562 -0.757812 5.347656 -2.457031 2.457031 -4.878906 C 2.382812 -4.914062 2.277344 -5.058594 2.203125 -5.09375 L 2.167969 -4.984375 L 2.167969 -2.023438 L 2.3125 -2.023438 L 2.3125 -2.3125 C 2.3125 -2.457031 3.25 -1.949219 4.226562 -1.265625 C 4.734375 -0.867188 5.3125 -0.578125 5.816406 -0.214844 L 5.816406 -0.253906 C 6.503906 0.0703125 7.191406 0.289062 7.839844 0.324219 C 8.058594 0.433594 8.128906 0.433594 8.09375 0.324219 C 11.453125 0.324219 14.777344 -2.492188 14.777344 -5.382812 Z M 14.777344 -5.382812 "/></g></g></g><g fill="#f4d8d6" fill-opacity="1"><g transform="translate(234.401034, 199.599992)"><g/></g></g><g fill="#f4d8d6" fill-opacity="1"><g transform="translate(244.625551, 199.599992)"><g><path d="M 3.070312 0 L 12.320312 0 C 18.425781 0 24.425781 -2.382812 24.425781 -7.515625 C 24.425781 -11.09375 19.472656 -14.597656 14.128906 -14.957031 C 18.933594 -15.789062 23.050781 -18.789062 23.050781 -21.824219 C 23.050781 -25.292969 19.367188 -28.6875 11.417969 -28.6875 L 3.070312 -28.6875 Z M 7.949219 -14.992188 L 7.949219 -28.398438 L 10.839844 -28.398438 C 15.859375 -28.398438 18.210938 -24.894531 18.210938 -21.316406 C 18.210938 -18.136719 14.847656 -14.992188 11.417969 -14.992188 Z M 10.042969 -0.144531 C 8.996094 -0.144531 7.984375 -0.6875 7.984375 -1.226562 L 7.984375 -14.742188 L 12.25 -14.742188 C 15.679688 -14.742188 19.039062 -11.164062 19.039062 -7.515625 C 19.039062 -2.492188 15.464844 -0.144531 11.851562 -0.144531 Z M 10.042969 -0.144531 "/></g></g></g><g fill="#f4d8d6" fill-opacity="1"><g transform="translate(270.493912, 199.599992)"><g><path d="M 10.839844 0.359375 C 14.234375 0.359375 18.425781 -2.382812 19.292969 -5.167969 L 19.113281 -5.203125 C 18.425781 -3 14.558594 -0.867188 11.273438 -0.867188 C 8.597656 -0.867188 5.996094 -5.746094 5.996094 -10.695312 C 5.996094 -11.632812 6.070312 -12.539062 6.214844 -13.367188 L 20.015625 -13.367188 C 19.617188 -17.414062 15.609375 -20.015625 11.742188 -20.015625 C 6.648438 -20.015625 1.625 -15.679688 1.625 -8.996094 C 1.625 -4.261719 6.179688 0.359375 10.839844 0.359375 Z M 6.25 -13.65625 C 7.046875 -17.414062 9.320312 -19.726562 11.632812 -19.726562 C 13.1875 -19.726562 14.921875 -17.378906 15.355469 -13.695312 Z M 6.25 -13.65625 "/></g></g></g><g fill="#f4d8d6" fill-opacity="1"><g transform="translate(291.593245, 199.599992)"><g><path d="M 19.800781 -4.480469 L 19.472656 -4.625 C 19.292969 -3.683594 18.210938 -2.78125 17.234375 -2.78125 C 16.292969 -2.78125 15.390625 -3.539062 15.390625 -4.335938 L 15.390625 -13.910156 C 15.390625 -17.449219 12.609375 -20.015625 9.792969 -20.015625 C 5.890625 -20.015625 2.058594 -16.222656 2.058594 -14.597656 C 2.058594 -13.152344 3.359375 -11.707031 4.660156 -11.707031 C 5.671875 -11.707031 6.683594 -13.042969 6.683594 -13.765625 C 6.683594 -14.34375 5.960938 -15.355469 5.960938 -16.003906 C 5.960938 -17.054688 7.730469 -19.511719 9.503906 -19.511719 C 10.40625 -19.511719 11.273438 -17.777344 11.273438 -15.390625 L 11.273438 -10.441406 C 4.515625 -9.214844 1.335938 -7.40625 1.335938 -3.683594 C 1.335938 -1.625 3.503906 0.359375 5.707031 0.359375 C 6.9375 0.359375 9.394531 -0.9375 11.488281 -3.035156 C 12.105469 -1.265625 13.839844 0.179688 15.570312 0.179688 C 17.304688 0.179688 19.4375 -2.132812 19.835938 -4.480469 Z M 7.949219 -1.804688 C 6.757812 -1.804688 5.5625 -2.925781 5.5625 -4.082031 C 5.5625 -7.769531 7.40625 -9.359375 11.273438 -10.117188 L 11.273438 -4.335938 C 11.273438 -3.972656 11.308594 -3.613281 11.417969 -3.25 C 10.371094 -2.382812 8.886719 -1.804688 7.949219 -1.804688 Z M 7.949219 -1.804688 "/></g></g></g><g fill="#f4d8d6" fill-opacity="1"><g transform="translate(311.030644, 199.599992)"><g><path d="M 6.613281 0.359375 C 9.070312 0.359375 12.320312 -1.988281 13.550781 -4.550781 L 13.550781 0 L 15.609375 0 L 15.609375 0.0351562 L 17.703125 -0.542969 L 17.703125 -19.65625 L 13.550781 -19.65625 L 13.550781 -5.023438 C 12.71875 -3.722656 10.441406 -2.527344 8.5625 -2.527344 C 6.757812 -2.527344 4.949219 -4.261719 4.949219 -6.035156 L 4.949219 -19.65625 L 0.792969 -19.65625 L 0.792969 -6.035156 C 0.792969 -2.816406 3.683594 0.359375 6.613281 0.359375 Z M 6.613281 0.359375 "/></g></g></g><g fill="#f4d8d6" fill-opacity="1"><g transform="translate(330.142894, 199.599992)"><g><path d="M 9.320312 0.359375 C 11.960938 0.359375 14.847656 -2.203125 15.101562 -4.839844 L 14.558594 -4.914062 C 14.378906 -3.25 12.429688 -1.589844 10.585938 -1.589844 C 9.070312 -1.589844 7.585938 -3.46875 7.585938 -6.394531 L 7.695312 -17.449219 L 13.65625 -17.449219 L 13.65625 -19.65625 L 7.695312 -19.65625 L 7.695312 -24.386719 L 7.40625 -24.386719 L 1.191406 -17.8125 L 1.191406 -17.449219 L 3.539062 -17.449219 L 3.539062 -7.335938 C 3.539062 -2.671875 6.394531 0.359375 9.320312 0.359375 Z M 9.320312 0.359375 "/></g></g></g><g fill="#f4d8d6" fill-opacity="1"><g transform="translate(345.606105, 199.599992)"><g><path d="M 5.3125 9.429688 C 6.214844 9.429688 8.238281 7.730469 8.925781 6.035156 C 10.332031 2.492188 11.742188 -1.046875 13.117188 -4.660156 C 14.742188 -8.960938 16.367188 -13.261719 18.027344 -17.523438 C 18.460938 -18.605469 18.96875 -19.511719 19.292969 -19.511719 L 19.328125 -19.65625 L 16.402344 -19.65625 L 16.402344 -19.546875 L 16.476562 -19.546875 C 16.691406 -19.546875 16.582031 -18.644531 16.292969 -17.667969 L 12.285156 -5.457031 C 10.371094 -9.464844 8.417969 -13.511719 6.539062 -17.523438 C 6.070312 -18.535156 5.78125 -19.511719 5.996094 -19.511719 L 6.070312 -19.511719 L 6.070312 -19.617188 L 0.542969 -19.617188 L 0.542969 -19.511719 C 0.867188 -19.511719 1.480469 -18.605469 1.988281 -17.523438 L 10.1875 -0.179688 L 7.914062 5.492188 C 7.585938 6.285156 7.007812 7.046875 6.9375 7.046875 C 6.25 7.046875 5.816406 5.671875 5.128906 5.671875 C 4.226562 5.671875 3.359375 6.539062 3.359375 7.441406 C 3.359375 8.453125 4.335938 9.429688 5.3125 9.429688 Z M 5.3125 9.429688 "/></g></g></g><g fill="#f4d8d6" fill-opacity="1"><g transform="translate(159.55657, 219.449971)"><g><path d="M 6.828125 -3.640625 C 6.828125 -2.460938 6.488281 -1.5625 5.8125 -0.9375 C 5.144531 -0.3125 4.179688 0 2.921875 0 L 0.90625 0 L 0.90625 -7.140625 L 3.140625 -7.140625 C 4.304688 -7.140625 5.210938 -6.832031 5.859375 -6.21875 C 6.503906 -5.601562 6.828125 -4.742188 6.828125 -3.640625 Z M 5.25 -3.59375 C 5.25 -5.132812 4.570312 -5.90625 3.21875 -5.90625 L 2.40625 -5.90625 L 2.40625 -1.25 L 3.0625 -1.25 C 4.519531 -1.25 5.25 -2.03125 5.25 -3.59375 Z M 5.25 -3.59375 "/></g></g></g><g fill="#f4d8d6" fill-opacity="1"><g transform="translate(168.656017, 219.449971)"><g><path d="M 3.046875 -4.5 C 2.722656 -4.5 2.472656 -4.398438 2.296875 -4.203125 C 2.117188 -4.003906 2.019531 -3.71875 2 -3.34375 L 4.078125 -3.34375 C 4.078125 -3.71875 3.984375 -4.003906 3.796875 -4.203125 C 3.609375 -4.398438 3.359375 -4.5 3.046875 -4.5 Z M 3.25 0.09375 C 2.375 0.09375 1.6875 -0.144531 1.1875 -0.625 C 0.695312 -1.113281 0.453125 -1.800781 0.453125 -2.6875 C 0.453125 -3.601562 0.679688 -4.3125 1.140625 -4.8125 C 1.597656 -5.3125 2.226562 -5.5625 3.03125 -5.5625 C 3.800781 -5.5625 4.398438 -5.34375 4.828125 -4.90625 C 5.265625 -4.46875 5.484375 -3.859375 5.484375 -3.078125 L 5.484375 -2.359375 L 1.953125 -2.359375 C 1.972656 -1.929688 2.097656 -1.597656 2.328125 -1.359375 C 2.566406 -1.128906 2.898438 -1.015625 3.328125 -1.015625 C 3.648438 -1.015625 3.957031 -1.046875 4.25 -1.109375 C 4.539062 -1.179688 4.847656 -1.289062 5.171875 -1.4375 L 5.171875 -0.28125 C 4.910156 -0.15625 4.628906 -0.0625 4.328125 0 C 4.035156 0.0625 3.675781 0.09375 3.25 0.09375 Z M 3.25 0.09375 "/></g></g></g><g fill="#f4d8d6" fill-opacity="1"><g transform="translate(176.261907, 219.449971)"><g><path d="M 4.59375 -1.625 C 4.59375 -1.0625 4.394531 -0.632812 4 -0.34375 C 3.613281 -0.0507812 3.035156 0.09375 2.265625 0.09375 C 1.867188 0.09375 1.53125 0.0664062 1.25 0.015625 C 0.96875 -0.0351562 0.703125 -0.113281 0.453125 -0.21875 L 0.453125 -1.453125 C 0.734375 -1.316406 1.046875 -1.203125 1.390625 -1.109375 C 1.742188 -1.023438 2.050781 -0.984375 2.3125 -0.984375 C 2.851562 -0.984375 3.125 -1.140625 3.125 -1.453125 C 3.125 -1.578125 3.085938 -1.675781 3.015625 -1.75 C 2.941406 -1.820312 2.816406 -1.90625 2.640625 -2 C 2.460938 -2.09375 2.226562 -2.195312 1.9375 -2.3125 C 1.519531 -2.488281 1.210938 -2.648438 1.015625 -2.796875 C 0.816406 -2.953125 0.671875 -3.125 0.578125 -3.3125 C 0.492188 -3.507812 0.453125 -3.75 0.453125 -4.03125 C 0.453125 -4.519531 0.640625 -4.894531 1.015625 -5.15625 C 1.390625 -5.425781 1.921875 -5.5625 2.609375 -5.5625 C 3.265625 -5.5625 3.90625 -5.414062 4.53125 -5.125 L 4.078125 -4.0625 C 3.804688 -4.175781 3.550781 -4.269531 3.3125 -4.34375 C 3.070312 -4.414062 2.832031 -4.453125 2.59375 -4.453125 C 2.144531 -4.453125 1.921875 -4.335938 1.921875 -4.109375 C 1.921875 -3.972656 1.992188 -3.851562 2.140625 -3.75 C 2.285156 -3.65625 2.597656 -3.515625 3.078125 -3.328125 C 3.503906 -3.148438 3.816406 -2.984375 4.015625 -2.828125 C 4.210938 -2.679688 4.359375 -2.507812 4.453125 -2.3125 C 4.546875 -2.125 4.59375 -1.894531 4.59375 -1.625 Z M 4.59375 -1.625 "/></g></g></g><g fill="#f4d8d6" fill-opacity="1"><g transform="translate(182.930664, 219.449971)"><g><path d="M 0.71875 -6.875 C 0.71875 -7.351562 0.988281 -7.59375 1.53125 -7.59375 C 2.070312 -7.59375 2.34375 -7.351562 2.34375 -6.875 C 2.34375 -6.644531 2.273438 -6.460938 2.140625 -6.328125 C 2.003906 -6.203125 1.800781 -6.140625 1.53125 -6.140625 C 0.988281 -6.140625 0.71875 -6.382812 0.71875 -6.875 Z M 2.265625 0 L 0.78125 0 L 0.78125 -5.453125 L 2.265625 -5.453125 Z M 2.265625 0 "/></g></g></g><g fill="#f4d8d6" fill-opacity="1"><g transform="translate(187.68123, 219.449971)"><g><path d="M 5.53125 -5.453125 L 5.53125 -4.703125 L 4.671875 -4.484375 C 4.828125 -4.234375 4.90625 -3.957031 4.90625 -3.65625 C 4.90625 -3.070312 4.703125 -2.613281 4.296875 -2.28125 C 3.890625 -1.957031 3.320312 -1.796875 2.59375 -1.796875 L 2.328125 -1.8125 L 2.109375 -1.84375 C 1.953125 -1.726562 1.875 -1.597656 1.875 -1.453125 C 1.875 -1.234375 2.148438 -1.125 2.703125 -1.125 L 3.625 -1.125 C 4.226562 -1.125 4.6875 -0.992188 5 -0.734375 C 5.3125 -0.484375 5.46875 -0.109375 5.46875 0.390625 C 5.46875 1.023438 5.203125 1.519531 4.671875 1.875 C 4.140625 2.226562 3.375 2.40625 2.375 2.40625 C 1.613281 2.40625 1.03125 2.269531 0.625 2 C 0.226562 1.738281 0.03125 1.367188 0.03125 0.890625 C 0.03125 0.554688 0.128906 0.28125 0.328125 0.0625 C 0.535156 -0.15625 0.835938 -0.3125 1.234375 -0.40625 C 1.085938 -0.476562 0.957031 -0.585938 0.84375 -0.734375 C 0.726562 -0.878906 0.671875 -1.035156 0.671875 -1.203125 C 0.671875 -1.410156 0.726562 -1.582031 0.84375 -1.71875 C 0.96875 -1.851562 1.144531 -1.988281 1.375 -2.125 C 1.082031 -2.25 0.851562 -2.445312 0.6875 -2.71875 C 0.519531 -3 0.4375 -3.320312 0.4375 -3.6875 C 0.4375 -4.28125 0.628906 -4.738281 1.015625 -5.0625 C 1.410156 -5.394531 1.96875 -5.5625 2.6875 -5.5625 C 2.832031 -5.5625 3.007812 -5.546875 3.21875 -5.515625 C 3.4375 -5.492188 3.570312 -5.472656 3.625 -5.453125 Z M 1.3125 0.765625 C 1.3125 0.972656 1.410156 1.132812 1.609375 1.25 C 1.804688 1.375 2.082031 1.4375 2.4375 1.4375 C 2.976562 1.4375 3.398438 1.359375 3.703125 1.203125 C 4.003906 1.054688 4.15625 0.859375 4.15625 0.609375 C 4.15625 0.398438 4.0625 0.253906 3.875 0.171875 C 3.695312 0.0976562 3.421875 0.0625 3.046875 0.0625 L 2.28125 0.0625 C 2.007812 0.0625 1.78125 0.125 1.59375 0.25 C 1.40625 0.382812 1.3125 0.554688 1.3125 0.765625 Z M 1.859375 -3.671875 C 1.859375 -3.378906 1.925781 -3.144531 2.0625 -2.96875 C 2.195312 -2.789062 2.40625 -2.703125 2.6875 -2.703125 C 2.957031 -2.703125 3.15625 -2.789062 3.28125 -2.96875 C 3.414062 -3.144531 3.484375 -3.378906 3.484375 -3.671875 C 3.484375 -4.328125 3.21875 -4.65625 2.6875 -4.65625 C 2.132812 -4.65625 1.859375 -4.328125 1.859375 -3.671875 Z M 1.859375 -3.671875 "/></g></g></g><g fill="#f4d8d6" fill-opacity="1"><g transform="translate(195.02844, 219.449971)"><g><path d="M 5.828125 0 L 4.328125 0 L 4.328125 -3.1875 C 4.328125 -3.582031 4.253906 -3.878906 4.109375 -4.078125 C 3.972656 -4.273438 3.753906 -4.375 3.453125 -4.375 C 3.035156 -4.375 2.734375 -4.234375 2.546875 -3.953125 C 2.359375 -3.671875 2.265625 -3.207031 2.265625 -2.5625 L 2.265625 0 L 0.78125 0 L 0.78125 -5.453125 L 1.921875 -5.453125 L 2.125 -4.765625 L 2.203125 -4.765625 C 2.367188 -5.023438 2.597656 -5.222656 2.890625 -5.359375 C 3.179688 -5.492188 3.507812 -5.5625 3.875 -5.5625 C 4.507812 -5.5625 4.992188 -5.390625 5.328125 -5.046875 C 5.660156 -4.703125 5.828125 -4.207031 5.828125 -3.5625 Z M 5.828125 0 "/></g></g></g><g fill="#f4d8d6" fill-opacity="1"><g transform="translate(203.298134, 219.449971)"><g><path d="M 3.046875 -4.5 C 2.722656 -4.5 2.472656 -4.398438 2.296875 -4.203125 C 2.117188 -4.003906 2.019531 -3.71875 2 -3.34375 L 4.078125 -3.34375 C 4.078125 -3.71875 3.984375 -4.003906 3.796875 -4.203125 C 3.609375 -4.398438 3.359375 -4.5 3.046875 -4.5 Z M 3.25 0.09375 C 2.375 0.09375 1.6875 -0.144531 1.1875 -0.625 C 0.695312 -1.113281 0.453125 -1.800781 0.453125 -2.6875 C 0.453125 -3.601562 0.679688 -4.3125 1.140625 -4.8125 C 1.597656 -5.3125 2.226562 -5.5625 3.03125 -5.5625 C 3.800781 -5.5625 4.398438 -5.34375 4.828125 -4.90625 C 5.265625 -4.46875 5.484375 -3.859375 5.484375 -3.078125 L 5.484375 -2.359375 L 1.953125 -2.359375 C 1.972656 -1.929688 2.097656 -1.597656 2.328125 -1.359375 C 2.566406 -1.128906 2.898438 -1.015625 3.328125 -1.015625 C 3.648438 -1.015625 3.957031 -1.046875 4.25 -1.109375 C 4.539062 -1.179688 4.847656 -1.289062 5.171875 -1.4375 L 5.171875 -0.28125 C 4.910156 -0.15625 4.628906 -0.0625 4.328125 0 C 4.035156 0.0625 3.675781 0.09375 3.25 0.09375 Z M 3.25 0.09375 "/></g></g></g><g fill="#f4d8d6" fill-opacity="1"><g transform="translate(210.904026, 219.449971)"><g><path d="M 3.828125 -5.5625 C 4.023438 -5.5625 4.191406 -5.546875 4.328125 -5.515625 L 4.21875 -4.125 C 4.09375 -4.15625 3.945312 -4.171875 3.78125 -4.171875 C 3.300781 -4.171875 2.925781 -4.046875 2.65625 -3.796875 C 2.394531 -3.554688 2.265625 -3.21875 2.265625 -2.78125 L 2.265625 0 L 0.78125 0 L 0.78125 -5.453125 L 1.90625 -5.453125 L 2.125 -4.546875 L 2.203125 -4.546875 C 2.367188 -4.847656 2.597656 -5.09375 2.890625 -5.28125 C 3.179688 -5.46875 3.492188 -5.5625 3.828125 -5.5625 Z M 3.828125 -5.5625 "/></g></g></g><g clip-path="url(#f96a303e5e)"><path fill="#966d4b" d="M 186.246094 234.996094 C 186.25 234.996094 186.335938 234.953125 186.335938 234.953125 L 186.347656 234.949219 C 186.351562 234.945312 186.367188 234.9375 186.367188 234.9375 L 186.382812 234.929688 L 186.449219 234.898438 L 185.613281 233.21875 L 183.902344 229.777344 L 183.703125 229.875 L 185.378906 233.25 L 185.816406 234.125 Z M 186.449219 234.898438 L 186.382812 234.929688 L 186.457031 234.90625 L 185.804688 233.09375 L 184.519531 229.523438 L 184.3125 229.597656 L 185.613281 233.21875 Z M 186.457031 234.90625 L 186.382812 234.929688 L 186.367188 234.9375 L 186.460938 234.917969 C 186.457031 234.914062 186.023438 233.042969 186.023438 233.042969 L 185.160156 229.347656 L 184.945312 229.398438 L 185.804688 233.09375 Z M 186.460938 234.933594 L 186.460938 234.917969 L 186.367188 234.9375 L 186.351562 234.945312 Z M 186.457031 234.914062 L 186.246094 233.046875 L 185.816406 229.253906 L 185.59375 229.277344 L 186.023438 233.042969 Z M 186.457031 234.914062 C 186.460938 234.917969 186.460938 234.933594 186.460938 234.933594 L 186.351562 234.945312 C 186.351562 234.945312 186.363281 234.945312 186.363281 234.945312 L 186.460938 234.945312 C 186.460938 234.945312 186.460938 234.929688 186.460938 234.929688 L 186.46875 232.988281 L 186.484375 229.230469 L 186.261719 229.230469 L 186.246094 233.046875 Z M 186.460938 234.945312 L 186.378906 234.945312 L 186.460938 234.957031 Z M 186.460938 234.929688 L 186.6875 233.0625 L 187.136719 229.28125 L 186.917969 229.253906 L 186.46875 232.988281 Z M 186.460938 234.929688 L 186.460938 234.945312 C 186.460938 234.957031 186.378906 234.945312 186.378906 234.945312 L 186.363281 234.945312 L 186.457031 234.96875 L 186.894531 233.152344 L 187.792969 229.410156 L 187.574219 229.359375 L 186.6875 233.0625 Z M 186.457031 234.96875 L 186.363281 234.945312 L 186.351562 234.945312 C 186.355469 234.949219 186.453125 234.984375 186.453125 234.984375 C 186.457031 234.984375 186.476562 234.933594 186.476562 234.933594 L 187.136719 233.136719 L 188.429688 229.617188 L 188.21875 229.539062 L 186.894531 233.152344 Z M 186.453125 234.984375 L 186.355469 234.949219 L 186.445312 234.992188 Z M 186.476562 234.933594 L 187.289062 233.332031 L 189.03125 229.890625 L 188.832031 229.789062 L 187.136719 233.136719 Z M 186.476562 234.933594 L 186.457031 234.984375 C 186.453125 234.984375 186.445312 234.992188 186.445312 234.992188 L 186.355469 234.949219 C 186.363281 234.957031 186.441406 235.007812 186.441406 235.007812 C 186.445312 235.011719 186.457031 234.996094 186.457031 234.996094 L 186.476562 234.964844 L 187.53125 233.367188 L 189.601562 230.234375 L 189.414062 230.113281 L 187.289062 233.332031 Z M 186.433594 235.015625 L 186.441406 235.007812 L 186.363281 234.957031 Z M 186.476562 234.964844 L 187.671875 233.546875 L 190.125 230.636719 L 189.953125 230.496094 L 187.53125 233.367188 Z M 186.425781 235.027344 L 186.441406 235.007812 C 186.441406 235.007812 186.433594 235.015625 186.433594 235.015625 L 186.363281 234.957031 C 186.355469 234.953125 186.425781 235.027344 186.425781 235.027344 Z M 186.476562 234.964844 L 186.457031 234.996094 L 187.789062 233.742188 L 190.597656 231.097656 L 190.445312 230.9375 L 187.671875 233.546875 Z M 186.457031 234.996094 L 186.445312 235.011719 C 186.441406 235.007812 186.425781 235.027344 186.425781 235.027344 L 186.355469 234.953125 C 186.355469 234.953125 186.414062 235.035156 186.414062 235.035156 C 186.417969 235.039062 186.453125 235.015625 186.453125 235.015625 L 188.007812 233.859375 L 191.015625 231.621094 L 190.882812 231.441406 L 187.789062 233.742188 Z M 186.40625 235.039062 L 186.414062 235.035156 L 186.355469 234.953125 Z M 186.453125 235.015625 L 188.019531 234.105469 L 191.367188 232.171875 L 191.257812 231.976562 L 188.007812 233.859375 Z M 186.453125 235.015625 L 186.417969 235.039062 C 186.414062 235.035156 186.40625 235.039062 186.40625 235.039062 L 186.355469 234.953125 C 186.351562 234.953125 186.394531 235.046875 186.394531 235.046875 C 186.394531 235.050781 186.425781 235.039062 186.425781 235.039062 L 188.195312 234.273438 L 191.660156 232.773438 L 191.570312 232.570312 L 188.019531 234.105469 Z M 186.382812 235.050781 L 186.394531 235.046875 L 186.351562 234.953125 Z M 186.425781 235.039062 L 188.199219 234.503906 L 191.875 233.394531 L 191.808594 233.183594 L 188.195312 234.273438 Z M 186.425781 235.039062 L 186.394531 235.050781 C 186.394531 235.046875 186.382812 235.050781 186.382812 235.050781 L 186.351562 234.953125 C 186.347656 234.949219 186.351562 234.976562 186.351562 234.976562 L 186.367188 235.058594 L 186.5 235.035156 L 187.128906 234.921875 L 192.015625 234.046875 L 191.976562 233.828125 L 188.199219 234.503906 Z M 186.246094 234.996094 L 185.816406 234.125 L 185.210938 233.398438 L 182.777344 230.46875 L 182.605469 230.609375 L 185.785156 234.4375 L 186.167969 234.898438 Z M 186.324219 234.964844 L 186.335938 234.953125 L 186.25 234.996094 L 186.261719 235.015625 Z M 185.378906 233.25 L 183.320312 230.085938 L 183.132812 230.207031 L 185.210938 233.398438 L 185.816406 234.125 Z M 182.890625 245.386719 L 183.050781 245.050781 L 187.210938 236.371094 C 187.402344 236.011719 187.441406 235.589844 187.316406 235.203125 C 187.277344 235.09375 187.210938 235 187.128906 234.921875 L 186.5 235.035156 L 186.753906 235.140625 C 186.832031 235.179688 186.894531 235.25 186.917969 235.332031 C 186.996094 235.617188 186.964844 235.921875 186.824219 236.183594 L 182.644531 244.910156 L 182.140625 245.964844 L 180.101562 250.214844 C 180.089844 250.242188 180.074219 250.269531 180.054688 250.292969 C 180.054688 250.261719 180.0625 250.230469 180.074219 250.203125 L 180.503906 248.972656 L 181.1875 247.007812 L 185.199219 235.523438 C 185.285156 235.242188 185.476562 235.003906 185.734375 234.855469 C 185.785156 234.832031 185.835938 234.820312 185.890625 234.820312 C 185.921875 234.816406 185.953125 234.816406 185.984375 234.824219 L 186.167969 234.898438 L 185.785156 234.4375 C 185.714844 234.449219 185.644531 234.464844 185.578125 234.496094 C 185.21875 234.6875 184.949219 235.007812 184.832031 235.394531 L 181.121094 245.988281 L 180.816406 246.863281 L 180.210938 248.59375 L 179.691406 250.074219 C 179.628906 250.257812 179.648438 250.410156 179.703125 250.519531 C 179.75 250.605469 179.8125 250.664062 179.886719 250.691406 C 179.929688 250.710938 179.976562 250.71875 180.023438 250.71875 C 180.226562 250.71875 180.410156 250.59375 180.488281 250.402344 L 182.109375 247.019531 L 182.496094 246.210938 L 182.824219 245.527344 Z M 186.351562 234.976562 L 186.347656 234.949219 L 186.335938 234.953125 L 186.324219 234.964844 Z M 176.410156 247.082031 L 176.445312 247.03125 L 176.539062 246.886719 C 176.902344 247.066406 177.210938 247.339844 177.429688 247.675781 C 177.472656 247.742188 177.515625 247.808594 177.550781 247.878906 C 177.621094 247.753906 177.707031 247.636719 177.804688 247.53125 C 177.761719 247.457031 177.714844 247.390625 177.667969 247.324219 C 177.664062 247.320312 177.660156 247.3125 177.65625 247.308594 C 177.359375 246.929688 176.972656 246.636719 176.527344 246.457031 C 176.445312 246.429688 176.351562 246.464844 176.304688 246.539062 C 176.28125 246.570312 176.261719 246.605469 176.238281 246.640625 C 176.222656 246.660156 176.207031 246.683594 176.191406 246.707031 C 176.265625 246.832031 176.34375 246.953125 176.410156 247.082031 Z M 168.273438 264.171875 C 168.351562 264.152344 168.429688 264.148438 168.507812 264.148438 C 168.757812 264.15625 168.996094 264.253906 169.179688 264.425781 C 169.375 264.644531 169.480469 264.921875 169.484375 265.210938 C 169.484375 265.265625 169.484375 265.320312 169.476562 265.375 L 169.714844 265.417969 L 169.824219 265.4375 C 169.886719 264.980469 169.742188 264.519531 169.433594 264.179688 C 169.117188 263.878906 168.679688 263.746094 168.253906 263.820312 C 168.234375 263.820312 168.21875 263.824219 168.199219 263.828125 Z M 179.519531 246.761719 C 179.707031 246.371094 179.792969 245.699219 179.59375 245.253906 C 179.578125 245.222656 179.566406 245.1875 179.546875 245.160156 L 179.207031 245.363281 C 179.253906 245.445312 179.289062 245.535156 179.316406 245.621094 C 179.40625 245.925781 179.367188 246.257812 179.195312 246.535156 C 179.070312 246.710938 178.710938 246.867188 178.371094 246.972656 C 178.179688 247.03125 177.996094 247.070312 177.867188 247.09375 L 177.929688 247.484375 C 177.964844 247.476562 178 247.472656 178.039062 247.464844 C 178.542969 247.371094 179.328125 247.144531 179.519531 246.761719 Z M 173.460938 245.542969 C 173.542969 245.59375 173.613281 245.65625 173.679688 245.71875 C 173.886719 245.933594 174.015625 246.214844 174.027344 246.519531 C 174.015625 246.851562 173.890625 247.164062 173.675781 247.410156 C 173.617188 247.480469 173.554688 247.542969 173.484375 247.601562 L 173.726562 247.945312 C 173.730469 247.941406 173.730469 247.941406 173.734375 247.9375 C 174.171875 247.597656 174.433594 247.082031 174.449219 246.53125 C 174.4375 246.007812 174.175781 245.53125 173.75 245.230469 C 173.730469 245.21875 173.710938 245.203125 173.691406 245.1875 Z M 184.789062 246.78125 C 184.675781 246.8125 184.558594 246.828125 184.441406 246.824219 C 184.164062 246.820312 183.894531 246.726562 183.679688 246.546875 C 183.445312 246.316406 183.300781 246.019531 183.257812 245.703125 C 183.246094 245.609375 183.242188 245.519531 183.246094 245.425781 L 182.890625 245.386719 L 182.824219 245.527344 C 182.828125 246.03125 183.03125 246.511719 183.398438 246.863281 C 183.785156 247.1875 184.304688 247.3125 184.800781 247.210938 C 184.835938 247.203125 184.867188 247.199219 184.902344 247.1875 Z M 181.234375 267.203125 L 181.242188 267.1875 C 181.046875 267.160156 180.855469 267.132812 180.660156 267.101562 C 178.816406 266.828125 176.996094 266.449219 175.253906 265.765625 C 174.34375 265.402344 173.453125 264.996094 172.589844 264.539062 C 172.226562 264.34375 171.871094 264.148438 171.519531 263.957031 C 171.167969 263.734375 170.792969 263.542969 170.410156 263.386719 C 169.605469 263.09375 168.5 262.925781 167.773438 263.496094 C 167.695312 263.570312 167.691406 263.691406 167.761719 263.769531 C 169.480469 266.242188 172.160156 267.769531 174.886719 268.929688 C 177.644531 270.097656 180.558594 270.917969 183.261719 272.242188 C 183.921875 272.566406 184.574219 272.914062 185.238281 273.234375 C 186.285156 273.75 187.339844 274.253906 188.402344 274.742188 C 189.667969 275.332031 190.976562 275.824219 192.316406 276.203125 C 193.117188 276.421875 193.929688 276.59375 194.742188 276.746094 C 195.480469 276.847656 196.21875 276.988281 196.941406 277.167969 C 197.4375 277.292969 197.894531 277.542969 198.273438 277.886719 C 198.691406 278.335938 199.035156 278.847656 199.285156 279.410156 C 200.046875 280.945312 200.457031 282.605469 201.042969 284.203125 C 201.191406 284.59375 201.351562 284.984375 201.535156 285.375 C 201.597656 285.460938 201.71875 285.476562 201.808594 285.414062 C 201.875 285.367188 201.902344 285.277344 201.878906 285.199219 C 201.132812 283.640625 200.761719 281.929688 200.117188 280.328125 C 199.847656 279.625 199.507812 278.949219 199.101562 278.316406 C 198.816406 277.863281 198.433594 277.476562 197.976562 277.195312 C 197.472656 276.921875 196.921875 276.734375 196.355469 276.644531 C 195.5625 276.492188 194.757812 276.382812 193.964844 276.214844 C 192.417969 275.898438 190.910156 275.429688 189.460938 274.808594 C 188.378906 274.339844 187.308594 273.832031 186.25 273.316406 C 185.605469 273.007812 184.957031 272.707031 184.324219 272.378906 C 183.113281 271.75 181.867188 271.195312 180.59375 270.710938 C 179.175781 270.167969 177.734375 269.667969 176.320312 269.117188 C 173.976562 268.207031 171.589844 267.113281 169.714844 265.417969 L 169.476562 265.375 C 169.484375 265.320312 169.484375 265.265625 169.484375 265.210938 C 169.210938 264.949219 168.949219 264.675781 168.699219 264.382812 C 168.636719 264.308594 168.574219 264.226562 168.507812 264.148438 C 168.429688 264.148438 168.351562 264.152344 168.273438 264.171875 L 168.199219 263.828125 C 168.21875 263.824219 168.234375 263.820312 168.253906 263.820312 C 168.226562 263.78125 168.195312 263.742188 168.167969 263.703125 C 168.8125 263.335938 169.773438 263.566406 170.398438 263.816406 C 170.75 263.972656 171.089844 264.15625 171.414062 264.359375 C 171.765625 264.5625 172.121094 264.757812 172.484375 264.945312 C 174.179688 265.847656 175.980469 266.539062 177.847656 267 C 178.957031 267.261719 180.085938 267.4375 181.214844 267.59375 C 181.261719 267.601562 181.296875 267.589844 181.328125 267.570312 C 181.453125 267.488281 181.429688 267.234375 181.234375 267.203125 Z M 174.351562 250.753906 C 174.367188 250.648438 174.296875 250.550781 174.1875 250.53125 C 174.101562 250.519531 174.019531 250.5625 173.980469 250.640625 C 173.980469 250.648438 173.976562 250.652344 173.976562 250.660156 C 173.585938 251.914062 173.207031 253.171875 172.910156 254.449219 C 172.574219 255.898438 172.3125 257.386719 172.339844 258.878906 C 172.363281 260.117188 172.597656 261.457031 173.445312 262.421875 C 173.9375 262.953125 174.5 263.414062 175.113281 263.800781 C 175.8125 264.269531 176.546875 264.6875 177.28125 265.097656 C 178.425781 265.734375 179.574219 266.371094 180.660156 267.101562 C 180.855469 267.132812 181.046875 267.160156 181.242188 267.1875 L 181.234375 267.203125 C 181.429688 267.234375 181.453125 267.488281 181.328125 267.570312 C 181.558594 267.738281 181.789062 267.910156 182.007812 268.089844 C 182.207031 268.246094 182.386719 268.40625 182.570312 268.570312 C 182.753906 268.738281 183.039062 268.480469 182.859375 268.3125 C 181.472656 267.0625 179.867188 266.105469 178.246094 265.199219 C 176.855469 264.417969 175.371094 263.683594 174.179688 262.609375 C 173.726562 262.21875 173.371094 261.730469 173.136719 261.183594 C 172.910156 260.601562 172.78125 259.988281 172.746094 259.367188 C 172.648438 257.917969 172.871094 256.453125 173.171875 255.042969 C 173.449219 253.777344 173.804688 252.53125 174.1875 251.296875 C 174.203125 251.246094 174.214844 251.195312 174.230469 251.144531 C 174.269531 251.015625 174.3125 250.890625 174.351562 250.753906 Z M 178.515625 252.246094 C 178.476562 252.488281 178.738281 252.636719 178.804688 252.398438 C 178.804688 252.390625 178.808594 252.378906 178.8125 252.367188 C 178.910156 252.058594 179.285156 251.328125 179.703125 250.519531 C 179.648438 250.410156 179.628906 250.257812 179.691406 250.074219 L 180.210938 248.59375 C 179.824219 249.367188 178.765625 251.476562 178.550781 252.113281 C 178.53125 252.167969 178.519531 252.214844 178.515625 252.246094 Z M 177.550781 247.878906 C 177.515625 247.808594 177.472656 247.742188 177.429688 247.675781 C 177.25 247.949219 177.089844 248.191406 176.96875 248.375 C 176.894531 248.484375 176.835938 248.574219 176.796875 248.640625 C 176.660156 248.84375 176.984375 249.046875 177.117188 248.839844 C 177.121094 248.839844 177.527344 248.21875 178.039062 247.464844 C 178 247.472656 177.964844 247.476562 177.929688 247.484375 L 177.867188 247.09375 C 177.996094 247.070312 178.179688 247.03125 178.371094 246.972656 C 178.695312 246.496094 179.03125 246.015625 179.316406 245.621094 C 179.289062 245.535156 179.253906 245.445312 179.207031 245.363281 L 179.546875 245.160156 C 179.566406 245.1875 179.578125 245.222656 179.59375 245.253906 C 179.6875 245.128906 179.769531 245.027344 179.839844 244.949219 C 180.382812 245.316406 180.773438 245.824219 180.816406 246.507812 C 180.824219 246.632812 180.824219 246.75 180.816406 246.863281 L 181.121094 245.988281 C 181.074219 245.816406 181.007812 245.648438 180.914062 245.488281 C 180.667969 245.089844 180.324219 244.757812 179.914062 244.523438 C 179.839844 244.480469 179.746094 244.488281 179.679688 244.546875 C 179.335938 244.871094 178.398438 246.238281 177.667969 247.324219 C 177.714844 247.390625 177.761719 247.457031 177.804688 247.53125 C 177.707031 247.636719 177.621094 247.753906 177.550781 247.878906 Z M 181.1875 247.007812 L 180.503906 248.972656 C 180.816406 248.347656 181.058594 247.8125 181.113281 247.554688 C 181.144531 247.375 181.171875 247.191406 181.1875 247.007812 Z M 174.863281 252.902344 C 174.859375 252.914062 174.855469 252.921875 174.855469 252.933594 C 174.585938 254.050781 174.257812 255.175781 174.273438 256.335938 C 174.289062 257.507812 174.542969 258.773438 175.210938 259.761719 C 176.035156 260.972656 177.289062 261.722656 178.617188 262.269531 C 179.722656 262.707031 180.78125 263.25 181.777344 263.890625 C 182.894531 264.632812 183.929688 265.507812 184.992188 266.320312 C 185.1875 266.46875 185.398438 266.144531 185.199219 265.992188 L 185.195312 266 C 184.242188 265.273438 183.320312 264.507812 182.339844 263.820312 C 181.453125 263.207031 180.511719 262.679688 179.523438 262.25 C 178.804688 261.964844 178.105469 261.640625 177.425781 261.273438 C 176.847656 260.941406 176.328125 260.515625 175.882812 260.019531 C 175.101562 259.109375 174.753906 257.949219 174.671875 256.765625 C 174.589844 255.644531 174.851562 254.558594 175.117188 253.476562 C 175.15625 253.324219 175.195312 253.171875 175.230469 253.019531 C 175.289062 252.777344 174.921875 252.660156 174.863281 252.902344 Z M 190.644531 258.574219 C 190.519531 258.53125 190.394531 258.484375 190.273438 258.4375 C 189.222656 258.058594 188.175781 257.664062 187.144531 257.238281 C 186.269531 256.878906 185.402344 256.5 184.542969 256.101562 C 184.074219 255.882812 183.613281 255.660156 183.152344 255.429688 C 182.757812 255.234375 182.367188 255.054688 182.011719 254.847656 C 181.574219 254.574219 181.152344 254.273438 180.75 253.953125 C 180.234375 253.5625 179.722656 253.148438 179.226562 252.722656 C 179.082031 252.609375 178.945312 252.492188 178.8125 252.367188 C 178.808594 252.378906 178.804688 252.390625 178.804688 252.398438 C 178.738281 252.636719 178.476562 252.488281 178.515625 252.246094 C 178.519531 252.214844 178.53125 252.167969 178.550781 252.113281 C 178.457031 252.015625 178.367188 251.917969 178.28125 251.8125 C 178.269531 251.796875 178.242188 251.753906 178.234375 251.746094 C 178.203125 251.695312 178.175781 251.644531 178.144531 251.59375 C 178.089844 251.496094 178.039062 251.402344 177.988281 251.296875 C 177.882812 251.085938 177.792969 250.863281 177.710938 250.640625 C 177.535156 250.179688 177.394531 249.707031 177.242188 249.234375 C 177.203125 249.105469 177.160156 248.972656 177.117188 248.839844 C 176.984375 249.046875 176.660156 248.84375 176.796875 248.640625 C 176.835938 248.574219 176.894531 248.484375 176.96875 248.375 C 176.816406 247.917969 176.652344 247.464844 176.445312 247.03125 L 176.410156 247.082031 C 176.34375 246.953125 176.265625 246.832031 176.191406 246.707031 C 176.207031 246.683594 176.222656 246.660156 176.238281 246.640625 C 175.820312 245.898438 175.183594 245.296875 174.414062 244.921875 C 174.183594 244.8125 173.945312 244.710938 173.703125 244.628906 C 173.601562 244.597656 173.492188 244.652344 173.460938 244.753906 C 173.101562 246.175781 173.25 247.703125 173.558594 249.117188 C 173.675781 249.640625 173.816406 250.152344 173.976562 250.660156 C 173.976562 250.652344 173.980469 250.648438 173.980469 250.640625 C 174.019531 250.5625 174.101562 250.519531 174.1875 250.53125 C 174.296875 250.550781 174.367188 250.648438 174.351562 250.753906 C 174.3125 250.890625 174.269531 251.015625 174.230469 251.144531 C 174.214844 251.195312 174.203125 251.246094 174.1875 251.296875 C 174.382812 251.851562 174.605469 252.398438 174.855469 252.933594 C 174.855469 252.921875 174.859375 252.914062 174.863281 252.902344 C 174.921875 252.660156 175.289062 252.777344 175.230469 253.019531 C 175.195312 253.171875 175.15625 253.324219 175.117188 253.476562 C 175.179688 253.59375 175.234375 253.710938 175.296875 253.824219 C 175.972656 255.105469 176.808594 256.386719 177.921875 257.332031 C 179.398438 258.59375 181.132812 259.519531 182.835938 260.425781 C 184.542969 261.335938 186.289062 262.308594 187.765625 263.617188 C 187.960938 263.796875 188.15625 263.976562 188.351562 264.160156 C 188.546875 264.347656 188.816406 264.078125 188.640625 263.90625 C 187.21875 262.515625 185.5625 261.460938 183.828125 260.519531 C 182.140625 259.605469 180.421875 258.742188 178.871094 257.597656 C 178.277344 257.164062 177.734375 256.664062 177.253906 256.101562 C 176.777344 255.527344 176.351562 254.910156 175.980469 254.261719 C 175.152344 252.839844 174.523438 251.316406 174.101562 249.726562 C 173.949219 249.144531 173.820312 248.542969 173.734375 247.9375 C 173.730469 247.941406 173.730469 247.941406 173.726562 247.945312 L 173.484375 247.601562 C 173.554688 247.542969 173.617188 247.480469 173.675781 247.410156 C 173.625 246.847656 173.621094 246.28125 173.679688 245.71875 C 173.613281 245.65625 173.542969 245.59375 173.460938 245.542969 L 173.691406 245.1875 C 173.710938 245.203125 173.730469 245.21875 173.75 245.230469 C 173.757812 245.175781 173.769531 245.117188 173.78125 245.0625 C 174.570312 245.34375 175.257812 245.863281 175.738281 246.550781 C 176.234375 247.304688 176.5 248.1875 176.78125 249.039062 C 177.074219 249.945312 177.316406 250.902344 177.789062 251.738281 C 178.035156 252.132812 178.347656 252.484375 178.710938 252.773438 C 179.625 253.59375 180.589844 254.351562 181.605469 255.039062 C 181.84375 255.1875 182.089844 255.324219 182.347656 255.449219 C 182.808594 255.691406 183.28125 255.921875 183.753906 256.152344 C 184.632812 256.574219 185.523438 256.972656 186.421875 257.351562 C 187.6875 257.886719 188.964844 258.382812 190.261719 258.84375 L 190.527344 258.941406 C 190.542969 258.949219 190.554688 258.945312 190.570312 258.949219 C 190.773438 258.976562 190.863281 258.65625 190.644531 258.574219 Z M 207.382812 271.238281 C 205.917969 269.652344 205.679688 267.378906 204.816406 265.476562 C 204.347656 264.441406 203.617188 263.5625 202.914062 262.675781 C 202.128906 261.691406 201.320312 260.734375 200.484375 259.800781 C 198.816406 257.929688 197.003906 256.1875 195.066406 254.589844 C 194.105469 253.796875 193.101562 253.058594 192.058594 252.386719 C 190.996094 251.703125 189.894531 251.078125 188.847656 250.375 C 187.8125 249.707031 186.867188 248.90625 186.046875 247.988281 C 185.226562 247.113281 184.445312 246.1875 183.523438 245.414062 C 183.371094 245.289062 183.214844 245.167969 183.050781 245.050781 L 182.890625 245.386719 L 183.246094 245.425781 C 183.242188 245.519531 183.246094 245.609375 183.257812 245.703125 C 183.675781 246.046875 184.066406 246.429688 184.441406 246.824219 C 184.558594 246.828125 184.675781 246.8125 184.789062 246.78125 L 184.902344 247.1875 C 184.867188 247.199219 184.835938 247.203125 184.800781 247.210938 C 184.9375 247.359375 185.078125 247.511719 185.214844 247.660156 C 186.003906 248.566406 186.882812 249.394531 187.835938 250.132812 C 188.847656 250.886719 189.9375 251.527344 191.011719 252.1875 C 192.082031 252.839844 193.117188 253.554688 194.113281 254.320312 C 196.066406 255.863281 197.894531 257.558594 199.582031 259.390625 C 200.4375 260.3125 201.265625 261.261719 202.058594 262.238281 C 202.453125 262.714844 202.832031 263.199219 203.207031 263.6875 C 203.566406 264.125 203.894531 264.589844 204.183594 265.074219 C 205.203125 266.925781 205.390625 269.140625 206.613281 270.894531 C 206.761719 271.105469 206.921875 271.308594 207.097656 271.496094 C 207.183594 271.566406 207.304688 271.550781 207.375 271.464844 C 207.425781 271.402344 207.429688 271.308594 207.382812 271.238281 Z M 183.714844 250.375 C 185.28125 252.574219 187.238281 254.480469 188.929688 256.589844 C 189.402344 257.179688 189.871094 257.789062 190.273438 258.4375 C 190.394531 258.484375 190.519531 258.53125 190.644531 258.574219 C 190.863281 258.65625 190.773438 258.976562 190.570312 258.949219 C 190.726562 259.242188 190.871094 259.542969 190.992188 259.851562 C 191.082031 260.082031 191.421875 259.90625 191.335938 259.675781 C 190.929688 258.632812 190.265625 257.691406 189.585938 256.808594 C 188.773438 255.746094 187.882812 254.75 187 253.746094 C 186.117188 252.746094 185.226562 251.742188 184.417969 250.679688 C 183.75 249.8125 183.101562 248.882812 182.71875 247.847656 C 182.519531 247.3125 182.417969 246.75 182.496094 246.210938 L 182.109375 247.019531 C 182.273438 248.230469 183.050781 249.445312 183.714844 250.375 Z M 182.644531 244.910156 L 182.140625 245.964844 C 182.214844 245.621094 182.355469 245.285156 182.585938 244.96875 C 182.601562 244.945312 182.621094 244.925781 182.644531 244.910156 " fill-opacity="1" fill-rule="nonzero"/></g></svg>