<svg xmlns="http://www.w3.org/2000/svg" xmlns:xlink="http://www.w3.org/1999/xlink" width="500" zoomAndPan="magnify" viewBox="0 0 375 374.999991" height="500" preserveAspectRatio="xMidYMid meet" version="1.0"><defs><g/></defs><g fill="#f4d8d6" fill-opacity="1"><g transform="translate(9.281254, 199.599992)"><g><path d="M 10.804688 0.359375 C 15.246094 0.359375 19.617188 -3.683594 19.617188 -7.839844 C 19.617188 -11.054688 16.367188 -15.390625 12.285156 -16.871094 C 8.742188 -18.171875 5.925781 -21.0625 5.925781 -23.015625 C 5.925781 -25.871094 7.914062 -28.6875 9.972656 -28.6875 C 11.199219 -28.6875 12.683594 -28.074219 13.984375 -27.171875 C 14.378906 -26.773438 16.003906 -24.964844 17.558594 -23.195312 L 17.8125 -22.90625 L 18.28125 -22.90625 L 18.28125 -26.84375 L 18.101562 -26.84375 L 18.066406 -26.449219 C 18.027344 -26.050781 17.304688 -26.160156 16.546875 -26.664062 C 14.777344 -28.039062 12.140625 -29.085938 9.972656 -29.085938 C 5.996094 -29.085938 2.132812 -25.183594 2.132812 -21.171875 C 2.132812 -17.777344 5.347656 -13.296875 9.359375 -11.851562 C 12.898438 -10.550781 15.714844 -8.019531 15.714844 -6.46875 C 15.714844 -3.289062 13.296875 -0.144531 10.804688 -0.144531 C 9.429688 -0.144531 7.585938 -1.15625 5.996094 -2.601562 C 6.9375 -1.769531 5.203125 -3.972656 2.457031 -7.117188 L 2.203125 -7.40625 L 1.699219 -7.335938 L 1.699219 -2.058594 L 1.878906 -2.058594 L 1.914062 -2.78125 C 1.949219 -3.578125 2.960938 -3.503906 3.972656 -2.710938 C 5.960938 -0.9375 8.671875 0.359375 10.804688 0.359375 Z M 10.804688 0.359375 "/></g></g></g><g fill="#f4d8d6" fill-opacity="1"><g transform="translate(30.308329, 199.599992)"><g><path d="M 11.707031 0.359375 C 16.800781 0.359375 21.785156 -4.695312 21.785156 -9.828125 C 21.785156 -14.957031 16.800781 -20.015625 11.707031 -20.015625 C 6.613281 -20.015625 1.625 -14.957031 1.625 -9.828125 C 1.625 -4.695312 6.613281 0.359375 11.707031 0.359375 Z M 11.707031 -0.0351562 C 8.925781 -0.0351562 6.214844 -4.878906 6.214844 -9.828125 C 6.214844 -14.777344 8.925781 -19.617188 11.707031 -19.617188 C 14.488281 -19.617188 17.199219 -14.777344 17.199219 -9.828125 C 17.199219 -4.878906 14.488281 -0.0351562 11.707031 -0.0351562 Z M 11.707031 -0.0351562 "/></g></g></g><g fill="#f4d8d6" fill-opacity="1"><g transform="translate(53.719918, 199.599992)"><g><path d="M 10.695312 -19.835938 C 9.175781 -19.835938 6.613281 -18.644531 5.058594 -17.269531 L 5.058594 -28.6875 L 3 -28.6875 L 3 -28.722656 L 0.359375 -28 L 0.359375 -27.820312 C 0.722656 -27.820312 0.902344 -27.027344 0.902344 -26.121094 L 0.902344 0 L 1.121094 0 L 2.601562 -2.3125 C 4.40625 -0.792969 7.296875 0.359375 9.898438 0.359375 C 14.957031 0.359375 19.90625 -4.734375 19.90625 -9.9375 C 19.90625 -14.921875 15.355469 -19.835938 10.695312 -19.835938 Z M 10.042969 -0.253906 C 8.238281 -0.253906 5.925781 -2.058594 5.058594 -4.046875 L 5.058594 -16.511719 C 6.285156 -17.558594 8.238281 -18.5 9.359375 -18.5 C 12.320312 -18.5 15.246094 -14.019531 15.246094 -9.464844 C 15.246094 -4.804688 12.683594 -0.253906 10.042969 -0.253906 Z M 10.042969 -0.253906 "/></g></g></g><g fill="#f4d8d6" fill-opacity="1"><g transform="translate(75.252799, 199.599992)"><g><path d="M 0.976562 0 L 5.128906 0 L 5.128906 -14.886719 C 6.140625 -16.546875 7.984375 -18.066406 9.140625 -18.066406 C 10.082031 -18.066406 11.019531 -17.449219 11.019531 -16.800781 C 11.019531 -15.570312 12.25 -14.34375 13.476562 -14.34375 C 14.703125 -14.34375 15.898438 -15.570312 15.898438 -16.800781 C 15.898438 -18.425781 13.511719 -20.015625 11.054688 -20.015625 C 9.25 -20.015625 6.429688 -17.847656 5.09375 -15.535156 L 5.09375 -19.65625 L 3.035156 -19.65625 L 3.035156 -19.691406 C 2.382812 -19.546875 1.046875 -19.183594 0.398438 -19.003906 L 0.433594 -18.824219 L 0.542969 -18.824219 C 0.757812 -18.75 0.976562 -17.921875 0.976562 -17.089844 Z M 0.976562 0 "/></g></g></g><g fill="#f4d8d6" fill-opacity="1"><g transform="translate(91.510847, 199.599992)"><g><path d="M 19.800781 -4.480469 L 19.472656 -4.625 C 19.292969 -3.683594 18.210938 -2.78125 17.234375 -2.78125 C 16.292969 -2.78125 15.390625 -3.539062 15.390625 -4.335938 L 15.390625 -13.910156 C 15.390625 -17.449219 12.609375 -20.015625 9.792969 -20.015625 C 5.890625 -20.015625 2.058594 -16.222656 2.058594 -14.597656 C 2.058594 -13.152344 3.359375 -11.707031 4.660156 -11.707031 C 5.671875 -11.707031 6.683594 -13.042969 6.683594 -13.765625 C 6.683594 -14.34375 5.960938 -15.355469 5.960938 -16.003906 C 5.960938 -17.054688 7.730469 -19.511719 9.503906 -19.511719 C 10.40625 -19.511719 11.273438 -17.777344 11.273438 -15.390625 L 11.273438 -10.441406 C 4.515625 -9.214844 1.335938 -7.40625 1.335938 -3.683594 C 1.335938 -1.625 3.503906 0.359375 5.707031 0.359375 C 6.9375 0.359375 9.394531 -0.9375 11.488281 -3.035156 C 12.105469 -1.265625 13.839844 0.179688 15.570312 0.179688 C 17.304688 0.179688 19.4375 -2.132812 19.835938 -4.480469 Z M 7.949219 -1.804688 C 6.757812 -1.804688 5.5625 -2.925781 5.5625 -4.082031 C 5.5625 -7.769531 7.40625 -9.359375 11.273438 -10.117188 L 11.273438 -4.335938 C 11.273438 -3.972656 11.308594 -3.613281 11.417969 -3.25 C 10.371094 -2.382812 8.886719 -1.804688 7.949219 -1.804688 Z M 7.949219 -1.804688 "/></g></g></g><g fill="#f4d8d6" fill-opacity="1"><g transform="translate(110.948246, 199.599992)"><g><path d="M 0.9375 0 L 5.09375 0 L 5.09375 -14.921875 C 6.25 -16.402344 8.925781 -17.847656 10.515625 -17.847656 C 12.066406 -17.847656 13.296875 -15.425781 13.296875 -12.933594 L 13.296875 0 L 17.449219 0 L 17.449219 -12.933594 C 17.449219 -16.511719 14.992188 -20.015625 11.886719 -20.015625 C 10.1875 -20.015625 6.828125 -17.847656 5.09375 -15.644531 L 5.09375 -19.65625 L 3.035156 -19.65625 L 3.035156 -19.691406 C 2.382812 -19.546875 1.046875 -19.183594 0.398438 -19.003906 L 0.398438 -18.824219 L 0.503906 -18.824219 C 0.722656 -18.75 0.9375 -17.921875 0.9375 -17.089844 Z M 0.9375 0 "/></g></g></g><g fill="#f4d8d6" fill-opacity="1"><g transform="translate(129.988227, 199.599992)"><g><path d="M 12.03125 0.359375 C 14.777344 0.359375 18.460938 -2.238281 19.511719 -4.914062 L 19.328125 -4.984375 C 18.5 -2.855469 15.210938 -0.757812 12.683594 -0.757812 C 9.320312 -0.757812 6.035156 -5.707031 6.035156 -10.765625 C 6.035156 -15.28125 9.285156 -19.726562 12.609375 -19.726562 C 13.367188 -19.726562 14.703125 -17.992188 15.355469 -16.222656 C 15.714844 -15.175781 16.765625 -14.164062 17.449219 -14.164062 C 18.859375 -14.164062 19.871094 -15.175781 19.511719 -16.222656 C 18.824219 -18.136719 15.425781 -20.015625 12.683594 -20.015625 C 7.082031 -20.015625 1.625 -14.667969 1.625 -9.214844 C 1.625 -4.371094 6.792969 0.359375 12.03125 0.359375 Z M 12.03125 0.359375 "/></g></g></g><g fill="#f4d8d6" fill-opacity="1"><g transform="translate(150.581754, 199.599992)"><g><path d="M 10.839844 0.359375 C 14.234375 0.359375 18.425781 -2.382812 19.292969 -5.167969 L 19.113281 -5.203125 C 18.425781 -3 14.558594 -0.867188 11.273438 -0.867188 C 8.597656 -0.867188 5.996094 -5.746094 5.996094 -10.695312 C 5.996094 -11.632812 6.070312 -12.539062 6.214844 -13.367188 L 20.015625 -13.367188 C 19.617188 -17.414062 15.609375 -20.015625 11.742188 -20.015625 C 6.648438 -20.015625 1.625 -15.679688 1.625 -8.996094 C 1.625 -4.261719 6.179688 0.359375 10.839844 0.359375 Z M 6.25 -13.65625 C 7.046875 -17.414062 9.320312 -19.726562 11.632812 -19.726562 C 13.1875 -19.726562 14.921875 -17.378906 15.355469 -13.695312 Z M 6.25 -13.65625 "/></g></g></g><g fill="#f4d8d6" fill-opacity="1"><g transform="translate(171.681087, 199.599992)"><g><path d="M 0.9375 0 L 5.09375 0 L 5.09375 -28.6875 L 3.035156 -28.6875 L 3.035156 -28.722656 C 2.382812 -28.578125 1.046875 -28.21875 0.398438 -28.039062 L 0.398438 -27.855469 L 0.503906 -27.855469 C 0.722656 -27.785156 0.9375 -26.953125 0.9375 -26.121094 Z M 0.9375 0 "/></g></g></g><g fill="#f4d8d6" fill-opacity="1"><g transform="translate(178.364951, 199.599992)"><g><path d="M 0.9375 0 L 5.09375 0 L 5.09375 -15.355469 C 5.78125 -16.222656 8.5625 -17.089844 10.695312 -17.089844 C 12.644531 -17.089844 14.199219 -14.777344 14.199219 -12.429688 L 14.199219 0 L 18.355469 0 L 18.355469 -12.429688 C 18.355469 -16.257812 16.003906 -20.015625 13.042969 -20.015625 C 10.695312 -20.015625 6.757812 -17.921875 5.09375 -15.789062 L 5.09375 -28.6875 L 3.035156 -28.6875 L 3.035156 -28.722656 C 2.382812 -28.578125 1.046875 -28.21875 0.398438 -28.039062 L 0.398438 -27.855469 L 0.503906 -27.855469 C 0.722656 -27.785156 0.9375 -26.953125 0.9375 -26.121094 Z M 0.9375 0 "/></g></g></g><g fill="#f4d8d6" fill-opacity="1"><g transform="translate(198.308156, 199.599992)"><g><path d="M 19.800781 -4.480469 L 19.472656 -4.625 C 19.292969 -3.683594 18.210938 -2.78125 17.234375 -2.78125 C 16.292969 -2.78125 15.390625 -3.539062 15.390625 -4.335938 L 15.390625 -13.910156 C 15.390625 -17.449219 12.609375 -20.015625 9.792969 -20.015625 C 5.890625 -20.015625 2.058594 -16.222656 2.058594 -14.597656 C 2.058594 -13.152344 3.359375 -11.707031 4.660156 -11.707031 C 5.671875 -11.707031 6.683594 -13.042969 6.683594 -13.765625 C 6.683594 -14.34375 5.960938 -15.355469 5.960938 -16.003906 C 5.960938 -17.054688 7.730469 -19.511719 9.503906 -19.511719 C 10.40625 -19.511719 11.273438 -17.777344 11.273438 -15.390625 L 11.273438 -10.441406 C 4.515625 -9.214844 1.335938 -7.40625 1.335938 -3.683594 C 1.335938 -1.625 3.503906 0.359375 5.707031 0.359375 C 6.9375 0.359375 9.394531 -0.9375 11.488281 -3.035156 C 12.105469 -1.265625 13.839844 0.179688 15.570312 0.179688 C 17.304688 0.179688 19.4375 -2.132812 19.835938 -4.480469 Z M 7.949219 -1.804688 C 6.757812 -1.804688 5.5625 -2.925781 5.5625 -4.082031 C 5.5625 -7.769531 7.40625 -9.359375 11.273438 -10.117188 L 11.273438 -4.335938 C 11.273438 -3.972656 11.308594 -3.613281 11.417969 -3.25 C 10.371094 -2.382812 8.886719 -1.804688 7.949219 -1.804688 Z M 7.949219 -1.804688 "/></g></g></g><g fill="#f4d8d6" fill-opacity="1"><g transform="translate(217.745556, 199.599992)"><g><path d="M 14.777344 -5.382812 C 14.777344 -7.660156 12.210938 -10.585938 9.03125 -11.453125 C 6.71875 -12.066406 4.878906 -14.34375 4.878906 -16.148438 C 4.878906 -17.992188 6.46875 -19.761719 8.09375 -19.761719 C 8.597656 -19.761719 9.175781 -19.582031 9.753906 -19.292969 C 9.070312 -19.617188 10.949219 -17.847656 13.550781 -15.679688 C 13.621094 -15.644531 13.730469 -15.5 13.800781 -15.464844 L 13.945312 -15.464844 L 13.945312 -18.027344 L 13.839844 -18.027344 C 13.839844 -17.957031 13.800781 -17.882812 13.800781 -17.8125 C 13.800781 -17.8125 11.128906 -19.292969 10.621094 -19.511719 C 10.441406 -19.65625 10.261719 -19.761719 10.082031 -19.871094 L 10.007812 -19.761719 C 9.359375 -19.980469 8.707031 -20.089844 8.09375 -20.089844 C 4.984375 -20.089844 1.914062 -17.449219 1.914062 -14.742188 C 1.914062 -12.210938 4.261719 -9.105469 7.191406 -8.308594 C 9.609375 -7.660156 11.5625 -5.707031 11.5625 -4.261719 C 11.5625 -2.09375 9.753906 0.214844 7.839844 -0.0351562 C 7.226562 -0.757812 5.347656 -2.457031 2.457031 -4.878906 C 2.382812 -4.914062 2.277344 -5.058594 2.203125 -5.09375 L 2.167969 -4.984375 L 2.167969 -2.023438 L 2.3125 -2.023438 L 2.3125 -2.3125 C 2.3125 -2.457031 3.25 -1.949219 4.226562 -1.265625 C 4.734375 -0.867188 5.3125 -0.578125 5.816406 -0.214844 L 5.816406 -0.253906 C 6.503906 0.0703125 7.191406 0.289062 7.839844 0.324219 C 8.058594 0.433594 8.128906 0.433594 8.09375 0.324219 C 11.453125 0.324219 14.777344 -2.492188 14.777344 -5.382812 Z M 14.777344 -5.382812 "/></g></g></g><g fill="#f4d8d6" fill-opacity="1"><g transform="translate(234.401034, 199.599992)"><g/></g></g><g fill="#f4d8d6" fill-opacity="1"><g transform="translate(244.625551, 199.599992)"><g><path d="M 3.070312 0 L 12.320312 0 C 18.425781 0 24.425781 -2.382812 24.425781 -7.515625 C 24.425781 -11.09375 19.472656 -14.597656 14.128906 -14.957031 C 18.933594 -15.789062 23.050781 -18.789062 23.050781 -21.824219 C 23.050781 -25.292969 19.367188 -28.6875 11.417969 -28.6875 L 3.070312 -28.6875 Z M 7.949219 -14.992188 L 7.949219 -28.398438 L 10.839844 -28.398438 C 15.859375 -28.398438 18.210938 -24.894531 18.210938 -21.316406 C 18.210938 -18.136719 14.847656 -14.992188 11.417969 -14.992188 Z M 10.042969 -0.144531 C 8.996094 -0.144531 7.984375 -0.6875 7.984375 -1.226562 L 7.984375 -14.742188 L 12.25 -14.742188 C 15.679688 -14.742188 19.039062 -11.164062 19.039062 -7.515625 C 19.039062 -2.492188 15.464844 -0.144531 11.851562 -0.144531 Z M 10.042969 -0.144531 "/></g></g></g><g fill="#f4d8d6" fill-opacity="1"><g transform="translate(270.493912, 199.599992)"><g><path d="M 10.839844 0.359375 C 14.234375 0.359375 18.425781 -2.382812 19.292969 -5.167969 L 19.113281 -5.203125 C 18.425781 -3 14.558594 -0.867188 11.273438 -0.867188 C 8.597656 -0.867188 5.996094 -5.746094 5.996094 -10.695312 C 5.996094 -11.632812 6.070312 -12.539062 6.214844 -13.367188 L 20.015625 -13.367188 C 19.617188 -17.414062 15.609375 -20.015625 11.742188 -20.015625 C 6.648438 -20.015625 1.625 -15.679688 1.625 -8.996094 C 1.625 -4.261719 6.179688 0.359375 10.839844 0.359375 Z M 6.25 -13.65625 C 7.046875 -17.414062 9.320312 -19.726562 11.632812 -19.726562 C 13.1875 -19.726562 14.921875 -17.378906 15.355469 -13.695312 Z M 6.25 -13.65625 "/></g></g></g><g fill="#f4d8d6" fill-opacity="1"><g transform="translate(291.593245, 199.599992)"><g><path d="M 19.800781 -4.480469 L 19.472656 -4.625 C 19.292969 -3.683594 18.210938 -2.78125 17.234375 -2.78125 C 16.292969 -2.78125 15.390625 -3.539062 15.390625 -4.335938 L 15.390625 -13.910156 C 15.390625 -17.449219 12.609375 -20.015625 9.792969 -20.015625 C 5.890625 -20.015625 2.058594 -16.222656 2.058594 -14.597656 C 2.058594 -13.152344 3.359375 -11.707031 4.660156 -11.707031 C 5.671875 -11.707031 6.683594 -13.042969 6.683594 -13.765625 C 6.683594 -14.34375 5.960938 -15.355469 5.960938 -16.003906 C 5.960938 -17.054688 7.730469 -19.511719 9.503906 -19.511719 C 10.40625 -19.511719 11.273438 -17.777344 11.273438 -15.390625 L 11.273438 -10.441406 C 4.515625 -9.214844 1.335938 -7.40625 1.335938 -3.683594 C 1.335938 -1.625 3.503906 0.359375 5.707031 0.359375 C 6.9375 0.359375 9.394531 -0.9375 11.488281 -3.035156 C 12.105469 -1.265625 13.839844 0.179688 15.570312 0.179688 C 17.304688 0.179688 19.4375 -2.132812 19.835938 -4.480469 Z M 7.949219 -1.804688 C 6.757812 -1.804688 5.5625 -2.925781 5.5625 -4.082031 C 5.5625 -7.769531 7.40625 -9.359375 11.273438 -10.117188 L 11.273438 -4.335938 C 11.273438 -3.972656 11.308594 -3.613281 11.417969 -3.25 C 10.371094 -2.382812 8.886719 -1.804688 7.949219 -1.804688 Z M 7.949219 -1.804688 "/></g></g></g><g fill="#f4d8d6" fill-opacity="1"><g transform="translate(311.030644, 199.599992)"><g><path d="M 6.613281 0.359375 C 9.070312 0.359375 12.320312 -1.988281 13.550781 -4.550781 L 13.550781 0 L 15.609375 0 L 15.609375 0.0351562 L 17.703125 -0.542969 L 17.703125 -19.65625 L 13.550781 -19.65625 L 13.550781 -5.023438 C 12.71875 -3.722656 10.441406 -2.527344 8.5625 -2.527344 C 6.757812 -2.527344 4.949219 -4.261719 4.949219 -6.035156 L 4.949219 -19.65625 L 0.792969 -19.65625 L 0.792969 -6.035156 C 0.792969 -2.816406 3.683594 0.359375 6.613281 0.359375 Z M 6.613281 0.359375 "/></g></g></g><g fill="#f4d8d6" fill-opacity="1"><g transform="translate(330.142894, 199.599992)"><g><path d="M 9.320312 0.359375 C 11.960938 0.359375 14.847656 -2.203125 15.101562 -4.839844 L 14.558594 -4.914062 C 14.378906 -3.25 12.429688 -1.589844 10.585938 -1.589844 C 9.070312 -1.589844 7.585938 -3.46875 7.585938 -6.394531 L 7.695312 -17.449219 L 13.65625 -17.449219 L 13.65625 -19.65625 L 7.695312 -19.65625 L 7.695312 -24.386719 L 7.40625 -24.386719 L 1.191406 -17.8125 L 1.191406 -17.449219 L 3.539062 -17.449219 L 3.539062 -7.335938 C 3.539062 -2.671875 6.394531 0.359375 9.320312 0.359375 Z M 9.320312 0.359375 "/></g></g></g><g fill="#f4d8d6" fill-opacity="1"><g transform="translate(345.606105, 199.599992)"><g><path d="M 5.3125 9.429688 C 6.214844 9.429688 8.238281 7.730469 8.925781 6.035156 C 10.332031 2.492188 11.742188 -1.046875 13.117188 -4.660156 C 14.742188 -8.960938 16.367188 -13.261719 18.027344 -17.523438 C 18.460938 -18.605469 18.96875 -19.511719 19.292969 -19.511719 L 19.328125 -19.65625 L 16.402344 -19.65625 L 16.402344 -19.546875 L 16.476562 -19.546875 C 16.691406 -19.546875 16.582031 -18.644531 16.292969 -17.667969 L 12.285156 -5.457031 C 10.371094 -9.464844 8.417969 -13.511719 6.539062 -17.523438 C 6.070312 -18.535156 5.78125 -19.511719 5.996094 -19.511719 L 6.070312 -19.511719 L 6.070312 -19.617188 L 0.542969 -19.617188 L 0.542969 -19.511719 C 0.867188 -19.511719 1.480469 -18.605469 1.988281 -17.523438 L 10.1875 -0.179688 L 7.914062 5.492188 C 7.585938 6.285156 7.007812 7.046875 6.9375 7.046875 C 6.25 7.046875 5.816406 5.671875 5.128906 5.671875 C 4.226562 5.671875 3.359375 6.539062 3.359375 7.441406 C 3.359375 8.453125 4.335938 9.429688 5.3125 9.429688 Z M 5.3125 9.429688 "/></g></g></g><g fill="#f4d8d6" fill-opacity="1"><g transform="translate(159.55657, 219.449971)"><g><path d="M 6.828125 -3.640625 C 6.828125 -2.460938 6.488281 -1.5625 5.8125 -0.9375 C 5.144531 -0.3125 4.179688 0 2.921875 0 L 0.90625 0 L 0.90625 -7.140625 L 3.140625 -7.140625 C 4.304688 -7.140625 5.210938 -6.832031 5.859375 -6.21875 C 6.503906 -5.601562 6.828125 -4.742188 6.828125 -3.640625 Z M 5.25 -3.59375 C 5.25 -5.132812 4.570312 -5.90625 3.21875 -5.90625 L 2.40625 -5.90625 L 2.40625 -1.25 L 3.0625 -1.25 C 4.519531 -1.25 5.25 -2.03125 5.25 -3.59375 Z M 5.25 -3.59375 "/></g></g></g><g fill="#f4d8d6" fill-opacity="1"><g transform="translate(168.656017, 219.449971)"><g><path d="M 3.046875 -4.5 C 2.722656 -4.5 2.472656 -4.398438 2.296875 -4.203125 C 2.117188 -4.003906 2.019531 -3.71875 2 -3.34375 L 4.078125 -3.34375 C 4.078125 -3.71875 3.984375 -4.003906 3.796875 -4.203125 C 3.609375 -4.398438 3.359375 -4.5 3.046875 -4.5 Z M 3.25 0.09375 C 2.375 0.09375 1.6875 -0.144531 1.1875 -0.625 C 0.695312 -1.113281 0.453125 -1.800781 0.453125 -2.6875 C 0.453125 -3.601562 0.679688 -4.3125 1.140625 -4.8125 C 1.597656 -5.3125 2.226562 -5.5625 3.03125 -5.5625 C 3.800781 -5.5625 4.398438 -5.34375 4.828125 -4.90625 C 5.265625 -4.46875 5.484375 -3.859375 5.484375 -3.078125 L 5.484375 -2.359375 L 1.953125 -2.359375 C 1.972656 -1.929688 2.097656 -1.597656 2.328125 -1.359375 C 2.566406 -1.128906 2.898438 -1.015625 3.328125 -1.015625 C 3.648438 -1.015625 3.957031 -1.046875 4.25 -1.109375 C 4.539062 -1.179688 4.847656 -1.289062 5.171875 -1.4375 L 5.171875 -0.28125 C 4.910156 -0.15625 4.628906 -0.0625 4.328125 0 C 4.035156 0.0625 3.675781 0.09375 3.25 0.09375 Z M 3.25 0.09375 "/></g></g></g><g fill="#f4d8d6" fill-opacity="1"><g transform="translate(176.261907, 219.449971)"><g><path d="M 4.59375 -1.625 C 4.59375 -1.0625 4.394531 -0.632812 4 -0.34375 C 3.613281 -0.0507812 3.035156 0.09375 2.265625 0.09375 C 1.867188 0.09375 1.53125 0.0664062 1.25 0.015625 C 0.96875 -0.0351562 0.703125 -0.113281 0.453125 -0.21875 L 0.453125 -1.453125 C 0.734375 -1.316406 1.046875 -1.203125 1.390625 -1.109375 C 1.742188 -1.023438 2.050781 -0.984375 2.3125 -0.984375 C 2.851562 -0.984375 3.125 -1.140625 3.125 -1.453125 C 3.125 -1.578125 3.085938 -1.675781 3.015625 -1.75 C 2.941406 -1.820312 2.816406 -1.90625 2.640625 -2 C 2.460938 -2.09375 2.226562 -2.195312 1.9375 -2.3125 C 1.519531 -2.488281 1.210938 -2.648438 1.015625 -2.796875 C 0.816406 -2.953125 0.671875 -3.125 0.578125 -3.3125 C 0.492188 -3.507812 0.453125 -3.75 0.453125 -4.03125 C 0.453125 -4.519531 0.640625 -4.894531 1.015625 -5.15625 C 1.390625 -5.425781 1.921875 -5.5625 2.609375 -5.5625 C 3.265625 -5.5625 3.90625 -5.414062 4.53125 -5.125 L 4.078125 -4.0625 C 3.804688 -4.175781 3.550781 -4.269531 3.3125 -4.34375 C 3.070312 -4.414062 2.832031 -4.453125 2.59375 -4.453125 C 2.144531 -4.453125 1.921875 -4.335938 1.921875 -4.109375 C 1.921875 -3.972656 1.992188 -3.851562 2.140625 -3.75 C 2.285156 -3.65625 2.597656 -3.515625 3.078125 -3.328125 C 3.503906 -3.148438 3.816406 -2.984375 4.015625 -2.828125 C 4.210938 -2.679688 4.359375 -2.507812 4.453125 -2.3125 C 4.546875 -2.125 4.59375 -1.894531 4.59375 -1.625 Z M 4.59375 -1.625 "/></g></g></g><g fill="#f4d8d6" fill-opacity="1"><g transform="translate(182.930664, 219.449971)"><g><path d="M 0.71875 -6.875 C 0.71875 -7.351562 0.988281 -7.59375 1.53125 -7.59375 C 2.070312 -7.59375 2.34375 -7.351562 2.34375 -6.875 C 2.34375 -6.644531 2.273438 -6.460938 2.140625 -6.328125 C 2.003906 -6.203125 1.800781 -6.140625 1.53125 -6.140625 C 0.988281 -6.140625 0.71875 -6.382812 0.71875 -6.875 Z M 2.265625 0 L 0.78125 0 L 0.78125 -5.453125 L 2.265625 -5.453125 Z M 2.265625 0 "/></g></g></g><g fill="#f4d8d6" fill-opacity="1"><g transform="translate(187.68123, 219.449971)"><g><path d="M 5.53125 -5.453125 L 5.53125 -4.703125 L 4.671875 -4.484375 C 4.828125 -4.234375 4.90625 -3.957031 4.90625 -3.65625 C 4.90625 -3.070312 4.703125 -2.613281 4.296875 -2.28125 C 3.890625 -1.957031 3.320312 -1.796875 2.59375 -1.796875 L 2.328125 -1.8125 L 2.109375 -1.84375 C 1.953125 -1.726562 1.875 -1.597656 1.875 -1.453125 C 1.875 -1.234375 2.148438 -1.125 2.703125 -1.125 L 3.625 -1.125 C 4.226562 -1.125 4.6875 -0.992188 5 -0.734375 C 5.3125 -0.484375 5.46875 -0.109375 5.46875 0.390625 C 5.46875 1.023438 5.203125 1.519531 4.671875 1.875 C 4.140625 2.226562 3.375 2.40625 2.375 2.40625 C 1.613281 2.40625 1.03125 2.269531 0.625 2 C 0.226562 1.738281 0.03125 1.367188 0.03125 0.890625 C 0.03125 0.554688 0.128906 0.28125 0.328125 0.0625 C 0.535156 -0.15625 0.835938 -0.3125 1.234375 -0.40625 C 1.085938 -0.476562 0.957031 -0.585938 0.84375 -0.734375 C 0.726562 -0.878906 0.671875 -1.035156 0.671875 -1.203125 C 0.671875 -1.410156 0.726562 -1.582031 0.84375 -1.71875 C 0.96875 -1.851562 1.144531 -1.988281 1.375 -2.125 C 1.082031 -2.25 0.851562 -2.445312 0.6875 -2.71875 C 0.519531 -3 0.4375 -3.320312 0.4375 -3.6875 C 0.4375 -4.28125 0.628906 -4.738281 1.015625 -5.0625 C 1.410156 -5.394531 1.96875 -5.5625 2.6875 -5.5625 C 2.832031 -5.5625 3.007812 -5.546875 3.21875 -5.515625 C 3.4375 -5.492188 3.570312 -5.472656 3.625 -5.453125 Z M 1.3125 0.765625 C 1.3125 0.972656 1.410156 1.132812 1.609375 1.25 C 1.804688 1.375 2.082031 1.4375 2.4375 1.4375 C 2.976562 1.4375 3.398438 1.359375 3.703125 1.203125 C 4.003906 1.054688 4.15625 0.859375 4.15625 0.609375 C 4.15625 0.398438 4.0625 0.253906 3.875 0.171875 C 3.695312 0.0976562 3.421875 0.0625 3.046875 0.0625 L 2.28125 0.0625 C 2.007812 0.0625 1.78125 0.125 1.59375 0.25 C 1.40625 0.382812 1.3125 0.554688 1.3125 0.765625 Z M 1.859375 -3.671875 C 1.859375 -3.378906 1.925781 -3.144531 2.0625 -2.96875 C 2.195312 -2.789062 2.40625 -2.703125 2.6875 -2.703125 C 2.957031 -2.703125 3.15625 -2.789062 3.28125 -2.96875 C 3.414062 -3.144531 3.484375 -3.378906 3.484375 -3.671875 C 3.484375 -4.328125 3.21875 -4.65625 2.6875 -4.65625 C 2.132812 -4.65625 1.859375 -4.328125 1.859375 -3.671875 Z M 1.859375 -3.671875 "/></g></g></g><g fill="#f4d8d6" fill-opacity="1"><g transform="translate(195.02844, 219.449971)"><g><path d="M 5.828125 0 L 4.328125 0 L 4.328125 -3.1875 C 4.328125 -3.582031 4.253906 -3.878906 4.109375 -4.078125 C 3.972656 -4.273438 3.753906 -4.375 3.453125 -4.375 C 3.035156 -4.375 2.734375 -4.234375 2.546875 -3.953125 C 2.359375 -3.671875 2.265625 -3.207031 2.265625 -2.5625 L 2.265625 0 L 0.78125 0 L 0.78125 -5.453125 L 1.921875 -5.453125 L 2.125 -4.765625 L 2.203125 -4.765625 C 2.367188 -5.023438 2.597656 -5.222656 2.890625 -5.359375 C 3.179688 -5.492188 3.507812 -5.5625 3.875 -5.5625 C 4.507812 -5.5625 4.992188 -5.390625 5.328125 -5.046875 C 5.660156 -4.703125 5.828125 -4.207031 5.828125 -3.5625 Z M 5.828125 0 "/></g></g></g><g fill="#f4d8d6" fill-opacity="1"><g transform="translate(203.298134, 219.449971)"><g><path d="M 3.046875 -4.5 C 2.722656 -4.5 2.472656 -4.398438 2.296875 -4.203125 C 2.117188 -4.003906 2.019531 -3.71875 2 -3.34375 L 4.078125 -3.34375 C 4.078125 -3.71875 3.984375 -4.003906 3.796875 -4.203125 C 3.609375 -4.398438 3.359375 -4.5 3.046875 -4.5 Z M 3.25 0.09375 C 2.375 0.09375 1.6875 -0.144531 1.1875 -0.625 C 0.695312 -1.113281 0.453125 -1.800781 0.453125 -2.6875 C 0.453125 -3.601562 0.679688 -4.3125 1.140625 -4.8125 C 1.597656 -5.3125 2.226562 -5.5625 3.03125 -5.5625 C 3.800781 -5.5625 4.398438 -5.34375 4.828125 -4.90625 C 5.265625 -4.46875 5.484375 -3.859375 5.484375 -3.078125 L 5.484375 -2.359375 L 1.953125 -2.359375 C 1.972656 -1.929688 2.097656 -1.597656 2.328125 -1.359375 C 2.566406 -1.128906 2.898438 -1.015625 3.328125 -1.015625 C 3.648438 -1.015625 3.957031 -1.046875 4.25 -1.109375 C 4.539062 -1.179688 4.847656 -1.289062 5.171875 -1.4375 L 5.171875 -0.28125 C 4.910156 -0.15625 4.628906 -0.0625 4.328125 0 C 4.035156 0.0625 3.675781 0.09375 3.25 0.09375 Z M 3.25 0.09375 "/></g></g></g><g fill="#f4d8d6" fill-opacity="1"><g transform="translate(210.904026, 219.449971)"><g><path d="M 3.828125 -5.5625 C 4.023438 -5.5625 4.191406 -5.546875 4.328125 -5.515625 L 4.21875 -4.125 C 4.09375 -4.15625 3.945312 -4.171875 3.78125 -4.171875 C 3.300781 -4.171875 2.925781 -4.046875 2.65625 -3.796875 C 2.394531 -3.554688 2.265625 -3.21875 2.265625 -2.78125 L 2.265625 0 L 0.78125 0 L 0.78125 -5.453125 L 1.90625 -5.453125 L 2.125 -4.546875 L 2.203125 -4.546875 C 2.367188 -4.847656 2.597656 -5.09375 2.890625 -5.28125 C 3.179688 -5.46875 3.492188 -5.5625 3.828125 -5.5625 Z M 3.828125 -5.5625 "/></g></g></g><g fill="#f4d8d6" fill-opacity="1"><g transform="translate(97.724104, 280.384026)"><g><path d="M 1.015625 0 L 3.6875 0 C 6.703125 0 9.644531 -2.082031 9.644531 -4.691406 C 9.644531 -7.058594 7.234375 -9.386719 4.21875 -9.386719 L 1.015625 -9.386719 Z M 3.535156 -0.09375 C 2.835938 -0.09375 2.613281 -0.25 2.613281 -0.402344 L 2.613281 -9.292969 L 3.832031 -9.292969 C 6.089844 -9.292969 7.898438 -7.011719 7.898438 -4.691406 C 7.898438 -2.140625 5.734375 -0.09375 3.535156 -0.09375 Z M 3.535156 -0.09375 "/></g></g></g><g fill="#f4d8d6" fill-opacity="1"><g transform="translate(108.010877, 280.384026)"><g><path d="M 3.546875 0.117188 C 4.65625 0.117188 6.027344 -0.78125 6.3125 -1.691406 L 6.253906 -1.703125 C 6.027344 -0.980469 4.765625 -0.285156 3.6875 -0.285156 C 2.8125 -0.285156 1.960938 -1.878906 1.960938 -3.5 C 1.960938 -3.804688 1.984375 -4.101562 2.035156 -4.375 L 6.550781 -4.375 C 6.417969 -5.699219 5.105469 -6.550781 3.84375 -6.550781 C 2.175781 -6.550781 0.53125 -5.128906 0.53125 -2.945312 C 0.53125 -1.394531 2.019531 0.117188 3.546875 0.117188 Z M 2.046875 -4.46875 C 2.304688 -5.699219 3.050781 -6.453125 3.804688 -6.453125 C 4.316406 -6.453125 4.882812 -5.6875 5.023438 -4.480469 Z M 2.046875 -4.46875 "/></g></g></g><g fill="#f4d8d6" fill-opacity="1"><g transform="translate(114.908093, 280.384026)"><g><path d="M 4.835938 -1.761719 C 4.835938 -2.507812 3.996094 -3.464844 2.957031 -3.746094 C 2.199219 -3.949219 1.597656 -4.691406 1.597656 -5.285156 C 1.597656 -5.886719 2.117188 -6.464844 2.648438 -6.464844 C 2.8125 -6.464844 3.003906 -6.40625 3.191406 -6.3125 C 2.96875 -6.417969 3.582031 -5.839844 4.433594 -5.128906 C 4.457031 -5.117188 4.492188 -5.070312 4.515625 -5.058594 L 4.5625 -5.058594 L 4.5625 -5.898438 L 4.527344 -5.898438 C 4.527344 -5.875 4.515625 -5.851562 4.515625 -5.828125 C 4.515625 -5.828125 3.640625 -6.3125 3.476562 -6.382812 C 3.417969 -6.429688 3.355469 -6.464844 3.296875 -6.5 L 3.273438 -6.464844 C 3.0625 -6.539062 2.847656 -6.574219 2.648438 -6.574219 C 1.632812 -6.574219 0.625 -5.710938 0.625 -4.824219 C 0.625 -3.996094 1.394531 -2.980469 2.351562 -2.71875 C 3.144531 -2.507812 3.78125 -1.867188 3.78125 -1.394531 C 3.78125 -0.6875 3.191406 0.0703125 2.566406 -0.0117188 C 2.363281 -0.25 1.75 -0.804688 0.804688 -1.597656 C 0.78125 -1.609375 0.746094 -1.65625 0.722656 -1.667969 L 0.710938 -1.632812 L 0.710938 -0.660156 L 0.757812 -0.660156 L 0.757812 -0.757812 C 0.757812 -0.804688 1.0625 -0.636719 1.382812 -0.414062 C 1.546875 -0.285156 1.738281 -0.1875 1.902344 -0.0703125 L 1.902344 -0.0820312 C 2.128906 0.0234375 2.351562 0.09375 2.566406 0.105469 C 2.636719 0.140625 2.660156 0.140625 2.648438 0.105469 C 3.746094 0.105469 4.835938 -0.816406 4.835938 -1.761719 Z M 4.835938 -1.761719 "/></g></g></g><g fill="#f4d8d6" fill-opacity="1"><g transform="translate(120.352642, 280.384026)"><g><path d="M 3.546875 0.117188 C 4.65625 0.117188 6.027344 -0.78125 6.3125 -1.691406 L 6.253906 -1.703125 C 6.027344 -0.980469 4.765625 -0.285156 3.6875 -0.285156 C 2.8125 -0.285156 1.960938 -1.878906 1.960938 -3.5 C 1.960938 -3.804688 1.984375 -4.101562 2.035156 -4.375 L 6.550781 -4.375 C 6.417969 -5.699219 5.105469 -6.550781 3.84375 -6.550781 C 2.175781 -6.550781 0.53125 -5.128906 0.53125 -2.945312 C 0.53125 -1.394531 2.019531 0.117188 3.546875 0.117188 Z M 2.046875 -4.46875 C 2.304688 -5.699219 3.050781 -6.453125 3.804688 -6.453125 C 4.316406 -6.453125 4.882812 -5.6875 5.023438 -4.480469 Z M 2.046875 -4.46875 "/></g></g></g><g fill="#f4d8d6" fill-opacity="1"><g transform="translate(127.249859, 280.384026)"><g><path d="M 0.308594 0 L 1.667969 0 L 1.667969 -4.882812 C 2.046875 -5.367188 2.917969 -5.839844 3.441406 -5.839844 C 3.949219 -5.839844 4.351562 -5.046875 4.351562 -4.230469 L 4.351562 0 L 5.710938 0 L 5.710938 -4.230469 C 5.710938 -5.402344 4.90625 -6.550781 3.890625 -6.550781 C 3.332031 -6.550781 2.234375 -5.839844 1.667969 -5.117188 L 1.667969 -6.429688 L 0.992188 -6.429688 L 0.992188 -6.441406 C 0.78125 -6.394531 0.34375 -6.277344 0.128906 -6.21875 L 0.128906 -6.160156 L 0.164062 -6.160156 C 0.238281 -6.136719 0.308594 -5.863281 0.308594 -5.589844 Z M 0.308594 0 "/></g></g></g><g fill="#f4d8d6" fill-opacity="1"><g transform="translate(133.473888, 280.384026)"><g><path d="M 2.90625 0.105469 L 3.308594 0.105469 C 4.066406 -1.84375 4.8125 -3.804688 5.578125 -5.757812 C 5.722656 -6.113281 5.886719 -6.40625 5.992188 -6.40625 L 5.992188 -6.429688 L 5.035156 -6.429688 L 5.035156 -6.394531 L 5.058594 -6.394531 C 5.117188 -6.394531 5.105469 -6.171875 5.035156 -5.898438 L 3.605469 -1.84375 C 3.074219 -3.144531 2.53125 -4.445312 2.007812 -5.746094 C 1.867188 -6.101562 1.785156 -6.394531 1.890625 -6.394531 L 1.890625 -6.429688 L 0.0820312 -6.429688 L 0.0820312 -6.394531 C 0.175781 -6.394531 0.320312 -6.195312 0.449219 -5.910156 Z M 2.90625 0.105469 "/></g></g></g><g fill="#f4d8d6" fill-opacity="1"><g transform="translate(139.81602, 280.384026)"><g><path d="M 3.832031 0.117188 C 5.496094 0.117188 7.128906 -1.535156 7.128906 -3.214844 C 7.128906 -4.894531 5.496094 -6.550781 3.832031 -6.550781 C 2.164062 -6.550781 0.53125 -4.894531 0.53125 -3.214844 C 0.53125 -1.535156 2.164062 0.117188 3.832031 0.117188 Z M 3.832031 -0.0117188 C 2.917969 -0.0117188 2.035156 -1.597656 2.035156 -3.214844 C 2.035156 -4.835938 2.917969 -6.417969 3.832031 -6.417969 C 4.742188 -6.417969 5.625 -4.835938 5.625 -3.214844 C 5.625 -1.597656 4.742188 -0.0117188 3.832031 -0.0117188 Z M 3.832031 -0.0117188 "/></g></g></g><g fill="#f4d8d6" fill-opacity="1"><g transform="translate(147.469096, 280.384026)"><g><path d="M 0.308594 0 L 1.667969 0 L 1.667969 -9.386719 L 0.992188 -9.386719 L 0.992188 -9.398438 C 0.78125 -9.351562 0.34375 -9.234375 0.128906 -9.171875 L 0.128906 -9.113281 L 0.164062 -9.113281 C 0.238281 -9.089844 0.308594 -8.820312 0.308594 -8.546875 Z M 0.308594 0 "/></g></g></g><g fill="#f4d8d6" fill-opacity="1"><g transform="translate(149.654001, 280.384026)"><g><path d="M 2.90625 0.105469 L 3.308594 0.105469 C 4.066406 -1.84375 4.8125 -3.804688 5.578125 -5.757812 C 5.722656 -6.113281 5.886719 -6.40625 5.992188 -6.40625 L 5.992188 -6.429688 L 5.035156 -6.429688 L 5.035156 -6.394531 L 5.058594 -6.394531 C 5.117188 -6.394531 5.105469 -6.171875 5.035156 -5.898438 L 3.605469 -1.84375 C 3.074219 -3.144531 2.53125 -4.445312 2.007812 -5.746094 C 1.867188 -6.101562 1.785156 -6.394531 1.890625 -6.394531 L 1.890625 -6.429688 L 0.0820312 -6.429688 L 0.0820312 -6.394531 C 0.175781 -6.394531 0.320312 -6.195312 0.449219 -5.910156 Z M 2.90625 0.105469 "/></g></g></g><g fill="#f4d8d6" fill-opacity="1"><g transform="translate(155.996134, 280.384026)"><g><path d="M 1.429688 -7.398438 C 1.867188 -7.398438 2.304688 -7.835938 2.304688 -8.273438 C 2.304688 -8.722656 1.867188 -9.160156 1.429688 -9.160156 C 0.980469 -9.160156 0.542969 -8.722656 0.542969 -8.273438 C 0.542969 -7.835938 0.980469 -7.398438 1.429688 -7.398438 Z M 0.792969 0 L 2.152344 0 L 2.152344 -6.429688 L 1.476562 -6.429688 L 1.476562 -6.441406 L 0.792969 -6.253906 Z M 0.792969 0 "/></g></g></g><g fill="#f4d8d6" fill-opacity="1"><g transform="translate(158.842416, 280.384026)"><g><path d="M 3.050781 0.0585938 C 3.664062 0.0585938 4.550781 -0.355469 4.953125 -0.804688 L 4.953125 0 L 5.625 0 L 5.625 0.0117188 L 6.3125 -0.175781 L 6.3125 -9.386719 L 5.640625 -9.386719 L 5.640625 -9.398438 C 5.425781 -9.351562 4.988281 -9.234375 4.777344 -9.171875 L 4.777344 -9.113281 L 4.8125 -9.113281 C 4.882812 -9.089844 4.953125 -8.820312 4.953125 -8.546875 L 4.953125 -5.578125 C 4.527344 -6.101562 3.867188 -6.550781 3.332031 -6.550781 C 1.773438 -6.550781 0.53125 -4.894531 0.53125 -3.214844 C 0.53125 -1.558594 1.773438 0.0585938 3.050781 0.0585938 Z M 3.617188 -0.507812 C 2.765625 -0.507812 1.925781 -2.035156 1.925781 -3.582031 C 1.925781 -4.882812 2.625 -6.160156 3.5 -6.160156 C 4.03125 -6.160156 4.765625 -5.425781 4.953125 -4.824219 L 4.953125 -0.957031 C 4.691406 -0.722656 4.078125 -0.507812 3.617188 -0.507812 Z M 3.617188 -0.507812 "/></g></g></g><g fill="#f4d8d6" fill-opacity="1"><g transform="translate(165.727822, 280.384026)"><g><path d="M 3.832031 0.117188 C 5.496094 0.117188 7.128906 -1.535156 7.128906 -3.214844 C 7.128906 -4.894531 5.496094 -6.550781 3.832031 -6.550781 C 2.164062 -6.550781 0.53125 -4.894531 0.53125 -3.214844 C 0.53125 -1.535156 2.164062 0.117188 3.832031 0.117188 Z M 3.832031 -0.0117188 C 2.917969 -0.0117188 2.035156 -1.597656 2.035156 -3.214844 C 2.035156 -4.835938 2.917969 -6.417969 3.832031 -6.417969 C 4.742188 -6.417969 5.625 -4.835938 5.625 -3.214844 C 5.625 -1.597656 4.742188 -0.0117188 3.832031 -0.0117188 Z M 3.832031 -0.0117188 "/></g></g></g><g fill="#f4d8d6" fill-opacity="1"><g transform="translate(173.380898, 280.384026)"><g/></g></g><g fill="#f4d8d6" fill-opacity="1"><g transform="translate(176.723214, 280.384026)"><g><path d="M 0.128906 2.601562 L 1.488281 2.601562 L 1.488281 -0.367188 C 1.996094 -0.105469 2.589844 0.0585938 3.132812 0.0585938 C 4.777344 0.0585938 6.394531 -1.785156 6.394531 -3.320312 C 6.394531 -4.953125 4.929688 -6.550781 3.441406 -6.550781 C 2.742188 -6.550781 1.878906 -6.160156 1.476562 -5.710938 L 1.476562 -6.429688 L 0.804688 -6.429688 L 0.804688 -6.441406 C 0.589844 -6.394531 0.152344 -6.277344 -0.0585938 -6.21875 L -0.046875 -6.160156 L -0.0117188 -6.160156 C 0.0585938 -6.136719 0.128906 -5.863281 0.128906 -5.589844 Z M 3.226562 -0.285156 C 2.554688 -0.285156 1.691406 -0.945312 1.488281 -1.621094 L 1.476562 -1.621094 L 1.476562 -5.175781 C 1.808594 -5.613281 2.398438 -5.980469 2.824219 -5.980469 C 3.878906 -5.980469 4.917969 -4.457031 4.917969 -2.894531 C 4.917969 -1.714844 4.078125 -0.285156 3.226562 -0.285156 Z M 3.226562 -0.285156 "/></g></g></g><g fill="#f4d8d6" fill-opacity="1"><g transform="translate(183.655861, 280.384026)"><g><path d="M 3.832031 0.117188 C 5.496094 0.117188 7.128906 -1.535156 7.128906 -3.214844 C 7.128906 -4.894531 5.496094 -6.550781 3.832031 -6.550781 C 2.164062 -6.550781 0.53125 -4.894531 0.53125 -3.214844 C 0.53125 -1.535156 2.164062 0.117188 3.832031 0.117188 Z M 3.832031 -0.0117188 C 2.917969 -0.0117188 2.035156 -1.597656 2.035156 -3.214844 C 2.035156 -4.835938 2.917969 -6.417969 3.832031 -6.417969 C 4.742188 -6.417969 5.625 -4.835938 5.625 -3.214844 C 5.625 -1.597656 4.742188 -0.0117188 3.832031 -0.0117188 Z M 3.832031 -0.0117188 "/></g></g></g><g fill="#f4d8d6" fill-opacity="1"><g transform="translate(191.308937, 280.384026)"><g><path d="M 0.320312 0 L 1.679688 0 L 1.679688 -4.871094 C 2.007812 -5.414062 2.613281 -5.910156 2.992188 -5.910156 C 3.296875 -5.910156 3.605469 -5.710938 3.605469 -5.496094 C 3.605469 -5.09375 4.007812 -4.691406 4.410156 -4.691406 C 4.8125 -4.691406 5.203125 -5.09375 5.203125 -5.496094 C 5.203125 -6.027344 4.421875 -6.550781 3.617188 -6.550781 C 3.027344 -6.550781 2.105469 -5.839844 1.667969 -5.082031 L 1.667969 -6.429688 L 0.992188 -6.429688 L 0.992188 -6.441406 C 0.78125 -6.394531 0.34375 -6.277344 0.128906 -6.21875 L 0.140625 -6.160156 L 0.175781 -6.160156 C 0.25 -6.136719 0.320312 -5.863281 0.320312 -5.589844 Z M 0.320312 0 "/></g></g></g><g fill="#f4d8d6" fill-opacity="1"><g transform="translate(196.623572, 280.384026)"><g/></g></g><g fill="#f4d8d6" fill-opacity="1"><g transform="translate(199.965888, 280.384026)"><g><path d="M 5.402344 0.105469 C 6.972656 0.105469 8.699219 -0.320312 9.621094 -0.746094 L 9.585938 -0.804688 C 9.398438 -0.722656 9.125 -0.636719 8.796875 -0.554688 C 8.808594 -1.171875 8.808594 -3.109375 8.808594 -4.078125 L 7.199219 -4.078125 L 7.199219 -3.039062 C 7.210938 -3.039062 7.210938 -1.773438 7.210938 -1.621094 C 7.117188 -0.875 6.40625 -0.199219 5.675781 -0.199219 C 3.949219 -0.199219 2.257812 -2.421875 2.257812 -4.691406 C 2.257812 -7.058594 3.855469 -9.386719 5.484375 -9.386719 C 6.207031 -9.386719 6.9375 -9.042969 7.578125 -8.570312 C 7.933594 -8.296875 8.546875 -7.671875 8.808594 -7.304688 C 8.820312 -7.28125 8.867188 -7.234375 8.878906 -7.210938 L 8.996094 -7.210938 L 8.996094 -8.6875 L 8.9375 -8.6875 L 8.925781 -8.523438 C 8.902344 -8.347656 8.617188 -8.371094 8.320312 -8.546875 C 7.613281 -9.089844 6.621094 -9.515625 5.425781 -9.515625 C 2.933594 -9.515625 0.484375 -7.140625 0.484375 -4.703125 C 0.484375 -2.269531 2.917969 0.105469 5.402344 0.105469 Z M 5.402344 0.105469 "/></g></g></g><g fill="#f4d8d6" fill-opacity="1"><g transform="translate(209.82749, 280.384026)"><g><path d="M 6.476562 -1.464844 L 6.371094 -1.511719 C 6.3125 -1.207031 5.957031 -0.910156 5.640625 -0.910156 C 5.332031 -0.910156 5.035156 -1.160156 5.035156 -1.417969 L 5.035156 -4.550781 C 5.035156 -5.710938 4.125 -6.550781 3.203125 -6.550781 C 1.925781 -6.550781 0.671875 -5.308594 0.671875 -4.777344 C 0.671875 -4.304688 1.097656 -3.832031 1.523438 -3.832031 C 1.855469 -3.832031 2.1875 -4.265625 2.1875 -4.503906 C 2.1875 -4.691406 1.949219 -5.023438 1.949219 -5.238281 C 1.949219 -5.578125 2.53125 -6.382812 3.109375 -6.382812 C 3.40625 -6.382812 3.6875 -5.816406 3.6875 -5.035156 L 3.6875 -3.417969 C 1.476562 -3.015625 0.4375 -2.421875 0.4375 -1.207031 C 0.4375 -0.53125 1.148438 0.117188 1.867188 0.117188 C 2.269531 0.117188 3.074219 -0.308594 3.757812 -0.992188 C 3.960938 -0.414062 4.527344 0.0585938 5.09375 0.0585938 C 5.664062 0.0585938 6.359375 -0.699219 6.488281 -1.464844 Z M 2.601562 -0.589844 C 2.210938 -0.589844 1.820312 -0.957031 1.820312 -1.335938 C 1.820312 -2.542969 2.421875 -3.0625 3.6875 -3.308594 L 3.6875 -1.417969 C 3.6875 -1.300781 3.699219 -1.183594 3.734375 -1.0625 C 3.394531 -0.78125 2.90625 -0.589844 2.601562 -0.589844 Z M 2.601562 -0.589844 "/></g></g></g><g fill="#f4d8d6" fill-opacity="1"><g transform="translate(216.181432, 280.384026)"><g><path d="M 3.5 -6.488281 C 3.003906 -6.488281 2.164062 -6.101562 1.65625 -5.652344 L 1.65625 -9.386719 L 0.980469 -9.386719 L 0.980469 -9.398438 L 0.117188 -9.160156 L 0.117188 -9.101562 C 0.238281 -9.101562 0.296875 -8.84375 0.296875 -8.546875 L 0.296875 0 L 0.367188 0 L 0.851562 -0.757812 C 1.441406 -0.261719 2.386719 0.117188 3.238281 0.117188 C 4.894531 0.117188 6.511719 -1.546875 6.511719 -3.25 C 6.511719 -4.882812 5.023438 -6.488281 3.5 -6.488281 Z M 3.285156 -0.0820312 C 2.695312 -0.0820312 1.9375 -0.671875 1.65625 -1.324219 L 1.65625 -5.402344 C 2.058594 -5.746094 2.695312 -6.050781 3.0625 -6.050781 C 4.03125 -6.050781 4.988281 -4.585938 4.988281 -3.097656 C 4.988281 -1.570312 4.148438 -0.0820312 3.285156 -0.0820312 Z M 3.285156 -0.0820312 "/></g></g></g><g fill="#f4d8d6" fill-opacity="1"><g transform="translate(223.220372, 280.384026)"><g><path d="M 0.320312 0 L 1.679688 0 L 1.679688 -4.871094 C 2.007812 -5.414062 2.613281 -5.910156 2.992188 -5.910156 C 3.296875 -5.910156 3.605469 -5.710938 3.605469 -5.496094 C 3.605469 -5.09375 4.007812 -4.691406 4.410156 -4.691406 C 4.8125 -4.691406 5.203125 -5.09375 5.203125 -5.496094 C 5.203125 -6.027344 4.421875 -6.550781 3.617188 -6.550781 C 3.027344 -6.550781 2.105469 -5.839844 1.667969 -5.082031 L 1.667969 -6.429688 L 0.992188 -6.429688 L 0.992188 -6.441406 C 0.78125 -6.394531 0.34375 -6.277344 0.128906 -6.21875 L 0.140625 -6.160156 L 0.175781 -6.160156 C 0.25 -6.136719 0.320312 -5.863281 0.320312 -5.589844 Z M 0.320312 0 "/></g></g></g><g fill="#f4d8d6" fill-opacity="1"><g transform="translate(228.535008, 280.384026)"><g><path d="M 1.429688 -7.398438 C 1.867188 -7.398438 2.304688 -7.835938 2.304688 -8.273438 C 2.304688 -8.722656 1.867188 -9.160156 1.429688 -9.160156 C 0.980469 -9.160156 0.542969 -8.722656 0.542969 -8.273438 C 0.542969 -7.835938 0.980469 -7.398438 1.429688 -7.398438 Z M 0.792969 0 L 2.152344 0 L 2.152344 -6.429688 L 1.476562 -6.429688 L 1.476562 -6.441406 L 0.792969 -6.253906 Z M 0.792969 0 "/></g></g></g><g fill="#f4d8d6" fill-opacity="1"><g transform="translate(231.381291, 280.384026)"><g><path d="M 3.546875 0.117188 C 4.65625 0.117188 6.027344 -0.78125 6.3125 -1.691406 L 6.253906 -1.703125 C 6.027344 -0.980469 4.765625 -0.285156 3.6875 -0.285156 C 2.8125 -0.285156 1.960938 -1.878906 1.960938 -3.5 C 1.960938 -3.804688 1.984375 -4.101562 2.035156 -4.375 L 6.550781 -4.375 C 6.417969 -5.699219 5.105469 -6.550781 3.84375 -6.550781 C 2.175781 -6.550781 0.53125 -5.128906 0.53125 -2.945312 C 0.53125 -1.394531 2.019531 0.117188 3.546875 0.117188 Z M 2.046875 -4.46875 C 2.304688 -5.699219 3.050781 -6.453125 3.804688 -6.453125 C 4.316406 -6.453125 4.882812 -5.6875 5.023438 -4.480469 Z M 2.046875 -4.46875 "/></g></g></g><g fill="#f4d8d6" fill-opacity="1"><g transform="translate(238.278507, 280.384026)"><g><path d="M 0.308594 0 L 1.667969 0 L 1.667969 -9.386719 L 0.992188 -9.386719 L 0.992188 -9.398438 C 0.78125 -9.351562 0.34375 -9.234375 0.128906 -9.171875 L 0.128906 -9.113281 L 0.164062 -9.113281 C 0.238281 -9.089844 0.308594 -8.820312 0.308594 -8.546875 Z M 0.308594 0 "/></g></g></g><g fill="#f4d8d6" fill-opacity="1"><g transform="translate(240.463413, 280.384026)"><g/></g></g><g fill="#f4d8d6" fill-opacity="1"><g transform="translate(243.805729, 280.384026)"><g><path d="M 7.105469 0.0117188 L 7.4375 0.0117188 L 7.542969 -8.832031 C 7.578125 -9.148438 7.730469 -9.339844 7.96875 -9.339844 L 7.96875 -9.375 L 7.070312 -9.375 L 7.070312 -8.746094 L 7.09375 -2.765625 C 5.332031 -4.976562 3.558594 -7.175781 1.785156 -9.375 L -0.578125 -9.375 L -0.578125 -9.339844 C -0.332031 -9.339844 0.0234375 -9.078125 0.285156 -8.746094 L 1.003906 -7.8125 L 0.980469 -0.613281 C 0.980469 -0.320312 0.816406 -0.0234375 0.636719 -0.0234375 L 0.566406 -0.0234375 L 0.578125 0 L 1.890625 0 L 1.890625 -0.0351562 L 1.820312 -0.0351562 C 1.65625 -0.0351562 1.476562 -0.332031 1.476562 -0.625 L 1.429688 -7.28125 C 3.320312 -4.847656 5.214844 -2.410156 7.105469 0.0117188 Z M 7.105469 0.0117188 "/></g></g></g><g fill="#f4d8d6" fill-opacity="1"><g transform="translate(252.46268, 280.384026)"><g><path d="M 2.164062 0.117188 C 2.96875 0.117188 4.03125 -0.648438 4.433594 -1.488281 L 4.433594 0 L 5.105469 0 L 5.105469 0.0117188 L 5.792969 -0.175781 L 5.792969 -6.429688 L 4.433594 -6.429688 L 4.433594 -1.644531 C 4.160156 -1.21875 3.417969 -0.828125 2.800781 -0.828125 C 2.210938 -0.828125 1.621094 -1.394531 1.621094 -1.972656 L 1.621094 -6.429688 L 0.261719 -6.429688 L 0.261719 -1.972656 C 0.261719 -0.921875 1.207031 0.117188 2.164062 0.117188 Z M 2.164062 0.117188 "/></g></g></g><g fill="#f4d8d6" fill-opacity="1"><g transform="translate(258.71033, 280.384026)"><g><path d="M 0.308594 0 L 1.667969 0 L 1.667969 -4.882812 C 2.046875 -5.367188 2.917969 -5.839844 3.441406 -5.839844 C 3.949219 -5.839844 4.351562 -5.046875 4.351562 -4.230469 L 4.351562 0 L 5.710938 0 L 5.710938 -4.230469 C 5.710938 -5.402344 4.90625 -6.550781 3.890625 -6.550781 C 3.332031 -6.550781 2.234375 -5.839844 1.667969 -5.117188 L 1.667969 -6.429688 L 0.992188 -6.429688 L 0.992188 -6.441406 C 0.78125 -6.394531 0.34375 -6.277344 0.128906 -6.21875 L 0.128906 -6.160156 L 0.164062 -6.160156 C 0.238281 -6.136719 0.308594 -5.863281 0.308594 -5.589844 Z M 0.308594 0 "/></g></g></g><g fill="#f4d8d6" fill-opacity="1"><g transform="translate(264.934359, 280.384026)"><g><path d="M 3.546875 0.117188 C 4.65625 0.117188 6.027344 -0.78125 6.3125 -1.691406 L 6.253906 -1.703125 C 6.027344 -0.980469 4.765625 -0.285156 3.6875 -0.285156 C 2.8125 -0.285156 1.960938 -1.878906 1.960938 -3.5 C 1.960938 -3.804688 1.984375 -4.101562 2.035156 -4.375 L 6.550781 -4.375 C 6.417969 -5.699219 5.105469 -6.550781 3.84375 -6.550781 C 2.175781 -6.550781 0.53125 -5.128906 0.53125 -2.945312 C 0.53125 -1.394531 2.019531 0.117188 3.546875 0.117188 Z M 2.046875 -4.46875 C 2.304688 -5.699219 3.050781 -6.453125 3.804688 -6.453125 C 4.316406 -6.453125 4.882812 -5.6875 5.023438 -4.480469 Z M 2.046875 -4.46875 "/></g></g></g><g fill="#f4d8d6" fill-opacity="1"><g transform="translate(271.831575, 280.384026)"><g><path d="M 4.835938 -1.761719 C 4.835938 -2.507812 3.996094 -3.464844 2.957031 -3.746094 C 2.199219 -3.949219 1.597656 -4.691406 1.597656 -5.285156 C 1.597656 -5.886719 2.117188 -6.464844 2.648438 -6.464844 C 2.8125 -6.464844 3.003906 -6.40625 3.191406 -6.3125 C 2.96875 -6.417969 3.582031 -5.839844 4.433594 -5.128906 C 4.457031 -5.117188 4.492188 -5.070312 4.515625 -5.058594 L 4.5625 -5.058594 L 4.5625 -5.898438 L 4.527344 -5.898438 C 4.527344 -5.875 4.515625 -5.851562 4.515625 -5.828125 C 4.515625 -5.828125 3.640625 -6.3125 3.476562 -6.382812 C 3.417969 -6.429688 3.355469 -6.464844 3.296875 -6.5 L 3.273438 -6.464844 C 3.0625 -6.539062 2.847656 -6.574219 2.648438 -6.574219 C 1.632812 -6.574219 0.625 -5.710938 0.625 -4.824219 C 0.625 -3.996094 1.394531 -2.980469 2.351562 -2.71875 C 3.144531 -2.507812 3.78125 -1.867188 3.78125 -1.394531 C 3.78125 -0.6875 3.191406 0.0703125 2.566406 -0.0117188 C 2.363281 -0.25 1.75 -0.804688 0.804688 -1.597656 C 0.78125 -1.609375 0.746094 -1.65625 0.722656 -1.667969 L 0.710938 -1.632812 L 0.710938 -0.660156 L 0.757812 -0.660156 L 0.757812 -0.757812 C 0.757812 -0.804688 1.0625 -0.636719 1.382812 -0.414062 C 1.546875 -0.285156 1.738281 -0.1875 1.902344 -0.0703125 L 1.902344 -0.0820312 C 2.128906 0.0234375 2.351562 0.09375 2.566406 0.105469 C 2.636719 0.140625 2.660156 0.140625 2.648438 0.105469 C 3.746094 0.105469 4.835938 -0.816406 4.835938 -1.761719 Z M 4.835938 -1.761719 "/></g></g></g></svg>